<svg xmlns="http://www.w3.org/2000/svg" width="110" height="85" viewBox="0 0 110 85">
    <defs>
        <linearGradient id="glh3jdk46a" x1="17.944%" x2="73.478%" y1="-.41%" y2="86.928%">
            <stop offset="0%" stop-color="#62E1FB"/>
            <stop offset="100%" stop-color="#00A2F3"/>
        </linearGradient>
        <linearGradient id="cz8hk7afpb" x1="82.996%" x2="31.455%" y1="81.671%" y2="24.375%">
            <stop offset="0%" stop-color="#00A2F3" stop-opacity="0"/>
            <stop offset="100%" stop-color="#0075CD"/>
        </linearGradient>
        <linearGradient id="h8b66s375c" x1="63.756%" x2="43.318%" y1="71.989%" y2="42.251%">
            <stop offset="0%" stop-color="#00A2F3" stop-opacity="0"/>
            <stop offset="100%" stop-color="#0075CD"/>
        </linearGradient>
        <linearGradient id="ymubi9tjnd" x1="49.997%" x2="49.997%" y1="26.963%" y2="113.722%">
            <stop offset="0%" stop-color="#FFF"/>
            <stop offset="100%" stop-color="#E2EDF2"/>
        </linearGradient>
        <linearGradient id="92i4f3bgje" x1="49.998%" x2="49.998%" y1="26.957%" y2="113.707%">
            <stop offset="0%" stop-color="#FFF"/>
            <stop offset="100%" stop-color="#E2EDF2"/>
        </linearGradient>
        <linearGradient id="q054eazqqf" x1="17.94%" x2="73.474%" y1="-.412%" y2="86.926%">
            <stop offset="0%" stop-color="#A7F3CE"/>
            <stop offset="100%" stop-color="#61DB99"/>
        </linearGradient>
        <linearGradient id="vnknrmnrfg" x1="82.994%" x2="31.453%" y1="81.672%" y2="24.377%">
            <stop offset="0%" stop-color="#61DB99" stop-opacity="0"/>
            <stop offset="100%" stop-color="#009E74"/>
        </linearGradient>
        <linearGradient id="hho1fkoa3h" x1="63.752%" x2="43.315%" y1="71.989%" y2="42.251%">
            <stop offset="0%" stop-color="#61DB99" stop-opacity="0"/>
            <stop offset="100%" stop-color="#009E74"/>
        </linearGradient>
        <linearGradient id="m77n152yvi" x1="49.991%" x2="49.991%" y1="26.963%" y2="113.722%">
            <stop offset="0%" stop-color="#FFF"/>
            <stop offset="100%" stop-color="#E2EDF2"/>
        </linearGradient>
        <linearGradient id="1m218v6qhj" x1="133.81%" x2="-6.966%" y1="140.69%" y2="17.015%">
            <stop offset="0%" stop-color="#61DB99" stop-opacity="0"/>
            <stop offset="100%" stop-color="#009E74"/>
        </linearGradient>
        <linearGradient id="x69le2xv9k" x1="49.994%" x2="49.994%" y1="26.957%" y2="113.707%">
            <stop offset="0%" stop-color="#FFF"/>
            <stop offset="100%" stop-color="#E2EDF2"/>
        </linearGradient>
        <linearGradient id="p9c79rsl2l" x1="94.445%" x2="-1.621%" y1="90.416%" y2="25.534%">
            <stop offset="0%" stop-color="#F2F2F2"/>
            <stop offset="100%" stop-color="#C3C3C3"/>
        </linearGradient>
        <linearGradient id="yomp3ff1nm" x1="56.06%" x2="97.822%" y1="56.063%" y2="97.825%">
            <stop offset="0%" stop-color="#5A79FF"/>
            <stop offset="100%" stop-color="#496CFF"/>
        </linearGradient>
        <linearGradient id="3cbl54zgpn" x1="82.998%" x2="31.454%" y1="81.666%" y2="24.374%">
            <stop offset="0%" stop-color="#2D50E2"/>
            <stop offset="100%" stop-color="#3B61FF"/>
        </linearGradient>
        <linearGradient id="9p6eqdqlto" x1="63.759%" x2="43.315%" y1="71.987%" y2="42.249%">
            <stop offset="0%" stop-color="#BE3F45" stop-opacity="0"/>
            <stop offset="100%" stop-color="#BE3F45"/>
        </linearGradient>
        <linearGradient id="ic6v6l9h6p" x1="49.995%" x2="49.995%" y1="26.95%" y2="113.704%">
            <stop offset="0%" stop-color="#FFF"/>
            <stop offset="100%" stop-color="#E2EDF2"/>
        </linearGradient>
        <linearGradient id="jt0koz1wiq" x1="89.492%" x2="63.62%" y1="86.151%" y2="68.132%">
            <stop offset="0%" stop-color="#5A7AFF"/>
            <stop offset="100%" stop-color="#0734F2"/>
        </linearGradient>
        <linearGradient id="l8pobmq5ur" x1="49.997%" x2="49.997%" y1="26.953%" y2="113.707%">
            <stop offset="0%" stop-color="#FFF"/>
            <stop offset="100%" stop-color="#E2EDF2"/>
        </linearGradient>
        <linearGradient id="wnfnr9gsqs" x1="75.378%" x2=".248%" y1="69.596%" y2="23.947%">
            <stop offset="0%" stop-color="#F2F2F2"/>
            <stop offset="100%" stop-color="#C3C3C3"/>
        </linearGradient>
        <linearGradient id="8qnmzrcqbt" x1="37.101%" x2="58.452%" y1="44.06%" y2="64.592%">
            <stop offset="0%" stop-color="#8BE9B9"/>
            <stop offset="100%" stop-color="#62DA9A"/>
        </linearGradient>
        <linearGradient id="gcf1fm23ju" x1="37.101%" x2="58.452%" y1="44.06%" y2="64.592%">
            <stop offset="0%" stop-color="#62DA9A"/>
            <stop offset="100%" stop-color="#8BE9B9"/>
        </linearGradient>
        <linearGradient id="83kc2uafhv" x1="37.101%" x2="58.452%" y1="44.06%" y2="64.591%">
            <stop offset="0%" stop-color="#8BE9B9"/>
            <stop offset="100%" stop-color="#62DA9A"/>
        </linearGradient>
    </defs>
    <g fill="none" fill-rule="evenodd">
        <g>
            <g>
                <g>
                    <g>
                        <g transform="translate(-796 -2607) translate(0 2526) translate(388 65) translate(408 16)">
                            <circle cx="25.462" cy="25.537" r="25.462" fill="url(#glh3jdk46a)"/>
                            <path fill="url(#cz8hk7afpb)" d="M50.805 27.992c-.497 5.234-2.583 10.008-5.77 13.83-1.258 1.51-2.686 2.874-4.259 4.055l-17.58-17.58-4.423-4.423c-1.96-1.806-3.188-4.394-3.188-7.268 0-5.455 4.422-9.878 9.878-9.878 2.874 0 5.462 1.23 7.268 3.188l18.074 18.076z"/>
                            <path fill="url(#h8b66s375c)" d="M45.036 41.822c-1.259 1.51-2.687 2.874-4.26 4.055C36.514 49.095 31.211 51 25.462 51c-.72 0-1.433-.03-2.139-.092l-11.71-11.693c1.249-5.628 5.84-9.995 11.583-10.917.74-.118 1.496-.18 2.266-.18 3.919 0 7.465 1.59 10.032 4.156l9.542 9.549z"/>
                            <circle cx="25.462" cy="16.605" r="9.878" fill="url(#ymubi9tjnd)"/>
                            <path fill="url(#92i4f3bgje)" d="M39.311 39.215c-3.527 3.575-8.43 5.788-13.849 5.788-5.419 0-10.322-2.213-13.85-5.788 1.41-6.351 7.074-11.098 13.85-11.098 3.919 0 7.465 1.59 10.032 4.156 1.872 1.87 3.224 4.264 3.817 6.942z"/>
                            <circle cx="84.538" cy="25.537" r="25.462" fill="url(#q054eazqqf)"/>
                            <path fill="url(#vnknrmnrfg)" d="M109.88 27.992c-.496 5.234-2.583 10.008-5.77 13.83-1.257 1.51-2.686 2.874-4.258 4.055L82.27 28.297l-4.423-4.423c-1.959-1.806-3.188-4.394-3.188-7.268 0-5.455 4.422-9.878 9.878-9.878 2.874 0 5.462 1.23 7.268 3.188l18.075 18.076z"/>
                            <path fill="url(#hho1fkoa3h)" d="M104.111 41.822c-1.258 1.51-2.687 2.874-4.26 4.055C95.59 49.095 90.287 51 84.539 51c-.72 0-1.433-.03-2.14-.092l-11.71-11.693c1.25-5.628 5.84-9.995 11.583-10.917.74-.118 1.496-.18 2.267-.18 3.919 0 7.465 1.59 10.031 4.156l9.542 9.549z"/>
                            <circle cx="84.538" cy="16.605" r="9.878" fill="url(#m77n152yvi)"/>
                            <path fill="url(#1m218v6qhj)" d="M84.538 50.999c5.66 0 10.886-1.848 15.114-4.97L78.237 24.613c-4.511-4.665-10.415-7.974-17.04-9.261-1.364 3.119-2.121 6.563-2.121 10.184 0 14.062 11.4 25.462 25.462 25.462z"/>
                            <path fill="url(#x69le2xv9k)" d="M98.387 39.215c-3.527 3.575-8.43 5.788-13.85 5.788-5.418 0-10.321-2.213-13.848-5.788 1.41-6.351 7.073-11.098 13.849-11.098 3.918 0 7.465 1.59 10.031 4.156 1.873 1.87 3.225 4.264 3.818 6.942z"/>
                            <path fill="url(#p9c79rsl2l)" d="M95.35 41.726L81.972 28.349c-5.604 1.023-10.057 5.336-11.284 10.866 3.527 3.575 8.43 5.788 13.849 5.788 4 0 7.719-1.207 10.811-3.277z"/>
                            <circle cx="55" cy="47.082" r="32.325" fill="url(#yomp3ff1nm)"/>
                            <path fill="url(#3cbl54zgpn)" d="M87.173 50.198c-.63 6.646-3.28 12.705-7.324 17.558-1.598 1.917-3.411 3.648-5.408 5.148L52.123 50.586l-5.615-5.615c-2.487-2.293-4.048-5.578-4.048-9.227 0-6.926 5.615-12.54 12.54-12.54 3.648 0 6.935 1.56 9.227 4.048l22.946 22.946z"/>
                            <path fill="url(#9p6eqdqlto)" d="M79.849 67.756c-1.598 1.917-3.411 3.648-5.408 5.148-5.41 4.085-12.144 6.502-19.44 6.502-.915 0-1.82-.037-2.717-.116L37.418 64.445c1.586-7.144 7.414-12.69 14.705-13.86.939-.15 1.899-.228 2.877-.228 4.975 0 9.477 2.018 12.736 5.276l12.113 12.123z"/>
                            <circle cx="55" cy="35.745" r="12.54" fill="url(#ic6v6l9h6p)"/>
                            <path fill="url(#jt0koz1wiq)" d="M43.111 77.149c3.68 1.456 7.691 2.257 11.889 2.257 9.446 0 17.944-4.052 23.854-10.512L71.83 61.87c-.568-.673-1.38-1.165-2.383-1.31l-3.17-.461-8.347-8.328c-1.715-2.028-5.122-1.761-6.389.805l-2.498 5.062c-.562 1.139-1.648 1.927-2.904 2.11l-5.586.812c-3.164.46-4.427 4.347-2.137 6.578l.29.284c.051.055.102.11.156.163l.291.283c.05.055.101.11.156.164l.29.283c.051.055.102.11.157.163l.29.284c.05.055.102.11.156.163l.291.283c.05.055.101.11.156.164l.29.283c.051.055.102.11.157.163l.29.284c.051.055.102.11.156.163l.29.283c.052.055.102.11.157.164l.29.283c.051.055.102.11.157.163l.29.284c.051.055.102.11.156.163l.076.074c.552.816.778 1.822.608 2.813l-.455 2.657z"/>
                            <path fill="url(#l8pobmq5ur)" d="M72.582 64.446C68.104 68.984 61.88 71.795 55 71.795c-6.88 0-13.104-2.81-17.582-7.35 1.79-8.062 8.98-14.088 17.582-14.088 4.974 0 9.477 2.018 12.735 5.276 2.378 2.375 4.094 5.414 4.847 8.813z"/>
                            <path fill="url(#wnfnr9gsqs)" d="M69.447 60.56l-3.17-.46-8.347-8.329c-1.715-2.028-5.122-1.76-6.389.805l-2.498 5.062c-.562 1.139-1.648 1.928-2.904 2.11l-5.586.812c-.97.14-1.761.605-2.326 1.245-.334.851-.607 1.732-.809 2.64 4.478 4.54 10.702 7.35 17.582 7.35 6.88 0 13.104-2.81 17.582-7.35-.2-.904-.471-1.782-.802-2.63-.566-.644-1.358-1.114-2.333-1.255z"/>
                            <path fill="url(#8qnmzrcqbt)" d="M58.459 52.576l2.498 5.062c.562 1.139 1.648 1.928 2.904 2.11l5.586.812c3.164.46 4.427 4.347 2.138 6.578l-4.042 3.94c-.91.887-1.324 2.163-1.11 3.415l.954 5.563c.54 3.15-2.766 5.553-5.596 4.066l-4.996-2.627c-1.124-.59-2.466-.59-3.59 0l-4.996 2.627c-2.83 1.487-6.137-.915-5.596-4.066l.954-5.563c.214-1.252-.2-2.528-1.11-3.414l-4.042-3.94c-2.289-2.232-1.026-6.12 2.138-6.58l5.586-.811c1.256-.182 2.342-.971 2.904-2.11l2.498-5.062c1.415-2.867 5.503-2.867 6.918 0z"/>
                            <path fill="url(#gcf1fm23ju)" d="M57.252 57.785l1.626 3.295c.366.741 1.072 1.255 1.89 1.374l3.637.528c2.06.3 2.881 2.83 1.391 4.283l-2.631 2.565c-.592.576-.862 1.407-.722 2.222l.62 3.622c.352 2.05-1.8 3.615-3.642 2.646l-3.253-1.71c-.731-.384-1.605-.384-2.336 0l-3.253 1.71c-1.842.969-3.995-.596-3.643-2.646l.621-3.622c.14-.815-.13-1.646-.722-2.222l-2.631-2.565c-1.49-1.453-.668-3.984 1.391-4.283l3.637-.528c.818-.12 1.524-.633 1.89-1.374l1.626-3.295c.921-1.866 3.583-1.866 4.504 0z"/>
                            <path fill="url(#83kc2uafhv)" d="M56.719 60.084l1.24 2.515c.28.566.82.958 1.444 1.049l2.775.403c1.572.229 2.2 2.16 1.062 3.269l-2.008 1.958c-.452.44-.658 1.075-.551 1.696l.474 2.765c.268 1.565-1.375 2.76-2.78 2.02l-2.484-1.305c-.558-.294-1.225-.294-1.783 0l-2.483 1.305c-1.406.74-3.049-.455-2.78-2.02l.473-2.765c.107-.621-.1-1.256-.55-1.696l-2.01-1.958c-1.137-1.109-.51-3.04 1.063-3.269l2.775-.403c.624-.091 1.164-.483 1.443-1.049l1.241-2.515c.704-1.424 2.736-1.424 3.439 0z"/>
                        </g>
                    </g>
                </g>
            </g>
        </g>
    </g>
</svg>
