<svg xmlns="http://www.w3.org/2000/svg" width="18" height="18"><g fill="#7B8197" stroke="#7B8197" stroke-width=".1" fill-rule="evenodd"><path fill-rule="nonzero" d="M15.855 15.571L14.821 3.92a.443.443 0 00-.446-.406h-2.18A3.522 3.522 0 008.679 0 3.524 3.524 0 005.16 3.514H2.98a.448.448 0 00-.446.406L1.5 15.57v.041c0 1.298 1.194 2.355 2.66 2.355h9.036c1.466 0 2.66-1.057 2.66-2.355v-.04zM8.678.893a2.628 2.628 0 012.625 2.621h-5.25A2.626 2.626 0 018.677.893zm4.518 16.177H4.16c-.967 0-1.755-.643-1.766-1.443l.996-11.22h1.77v1.566a.447.447 0 00.893 0V4.407h5.251v1.566a.447.447 0 00.893 0V4.407h1.77l.997 11.224c-.011.796-.8 1.44-1.767 1.44z"/><path d="M10.471 9.128l-2.633 2.633-1.075-1.074a.446.446 0 10-.632.632l1.391 1.39a.452.452 0 00.632 0l2.95-2.948a.45.45 0 000-.633.457.457 0 00-.633 0z"/></g></svg>