<svg xmlns="http://www.w3.org/2000/svg" xmlns:xlink="http://www.w3.org/1999/xlink" width="70" height="70"><defs><linearGradient id="p" x1="31.292%" x2="96.052%" y1="31.295%" y2="96.052%"><stop offset="0%" stop-color="#7E8595"/><stop offset="100%" stop-color="#555A66"/></linearGradient><linearGradient id="c" x1="46.297%" x2="62.631%" y1="49.879%" y2="64.068%"><stop offset="0%" stop-color="#92F37F"/><stop offset="100%" stop-color="#4AB272"/></linearGradient><linearGradient id="e" x1="57.625%" x2="85.193%" y1="55.74%" y2="67.695%"><stop offset="0%" stop-color="#4AB272" stop-opacity="0"/><stop offset="100%" stop-color="#009245"/></linearGradient><linearGradient id="f" x1="53.939%" x2="-4.78%" y1="59.835%" y2="47.477%"><stop offset="0%" stop-color="#4AB272" stop-opacity="0"/><stop offset="100%" stop-color="#009245"/></linearGradient><linearGradient id="g" x1="1.644%" x2="96.289%" y1="41.549%" y2="53.438%"><stop offset="0%" stop-color="#FFDAAA"/><stop offset="42.13%" stop-color="#FFD8A8"/><stop offset="65.19%" stop-color="#FED1A0"/><stop offset="83.59%" stop-color="#FDC592"/><stop offset="99.51%" stop-color="#FCB47F"/><stop offset="100%" stop-color="#FCB37E"/></linearGradient><linearGradient id="h" x1="61.858%" x2="48.575%" y1="67.622%" y2="6.514%"><stop offset="0%" stop-color="#FCB37E" stop-opacity="0"/><stop offset="100%" stop-color="#FF7044"/></linearGradient><linearGradient id="i" x1="27.643%" x2="67.8%" y1="-7.869%" y2="96.068%"><stop offset="0%" stop-color="#FFDAAA"/><stop offset="57.52%" stop-color="#FDC592"/><stop offset="100%" stop-color="#FCB37E"/></linearGradient><linearGradient id="j" x1="27.641%" x2="67.798%" y1="-7.869%" y2="96.068%"><stop offset="0%" stop-color="#FFDAAA"/><stop offset="57.52%" stop-color="#FDC592"/><stop offset="100%" stop-color="#FCB37E"/></linearGradient><linearGradient id="l" x1="54.685%" x2="46.293%" y1="55.471%" y2="27.55%"><stop offset="0%" stop-color="#FCB37E" stop-opacity="0"/><stop offset="100%" stop-color="#FF7044"/></linearGradient><linearGradient id="m" x1="31.292%" x2="96.049%" y1="31.295%" y2="96.052%"><stop offset="0%" stop-color="#7E8595"/><stop offset="100%" stop-color="#555A66"/></linearGradient><linearGradient id="n" x1="43.093%" x2="-.363%" y1="40.046%" y2="-22.6%"><stop offset="0%" stop-color="#BEC3D2" stop-opacity="0"/><stop offset="31.83%" stop-color="#C2C7D5" stop-opacity=".318"/><stop offset="60.82%" stop-color="#CDD1DE" stop-opacity=".608"/><stop offset="88.61%" stop-color="#DFE3ED" stop-opacity=".886"/><stop offset="100%" stop-color="#E9EDF5"/></linearGradient><linearGradient id="o" x1="49.048%" x2="121.6%" y1="67.443%" y2="-67.492%"><stop offset="0%" stop-color="#555A66" stop-opacity="0"/><stop offset="100%" stop-color="#555A66"/></linearGradient><linearGradient id="d" x1="53.019%" x2="-7.102%" y1="52.509%" y2="37.673%"><stop offset="0%" stop-color="#92F37F" stop-opacity="0"/><stop offset="100%" stop-color="#FFEE83"/></linearGradient><linearGradient id="q" x1="49.051%" x2="121.603%" y1="67.443%" y2="-67.492%"><stop offset="0%" stop-color="#555A66" stop-opacity="0"/><stop offset="100%" stop-color="#555A66"/></linearGradient><linearGradient id="r" x1="50.001%" x2="50.001%" y1="28.462%" y2="130.874%"><stop offset="0%" stop-color="#FCB37E" stop-opacity="0"/><stop offset="100%" stop-color="#FF7044"/></linearGradient><linearGradient id="s" x1="62.163%" x2="49.699%" y1="-1.689%" y2="52.046%"><stop offset="0%" stop-color="#FFDA45"/><stop offset="100%" stop-color="#FFA425"/></linearGradient><linearGradient id="t" x1="0%" x2="100%" y1="50%" y2="50%"><stop offset="0%" stop-color="#FFDA45"/><stop offset="100%" stop-color="#FFA425"/></linearGradient><linearGradient id="u" x1="63.615%" x2=".234%" y1="58.378%" y2="31.655%"><stop offset="0%" stop-color="#FFDA45" stop-opacity="0"/><stop offset="100%" stop-color="#FCEE21"/></linearGradient><linearGradient id="v" x1="48.135%" x2="65.978%" y1="49.969%" y2="67.439%"><stop offset="0%" stop-color="#FF7044"/><stop offset="100%" stop-color="#F92814"/></linearGradient><linearGradient id="w" x1="48.014%" x2="39.498%" y1="48.377%" y2="29.86%"><stop offset="0%" stop-color="#FF7044" stop-opacity="0"/><stop offset="100%" stop-color="#FFA425"/></linearGradient><linearGradient id="x" x1="48.135%" x2="65.978%" y1="49.969%" y2="67.439%"><stop offset="0%" stop-color="#FF7044"/><stop offset="100%" stop-color="#F92814"/></linearGradient><linearGradient id="y" x1="35.824%" x2="-12.408%" y1="50%" y2="50%"><stop offset="0%" stop-color="#4AB272" stop-opacity="0"/><stop offset="100%" stop-color="#009245"/></linearGradient><radialGradient id="k" cx="32.812%" cy="40.614%" r="87.581%" fx="32.812%" fy="40.614%" gradientTransform="matrix(1 0 0 .65529 0 .14)"><stop offset="0%" stop-color="#FFDAAA"/><stop offset="42.13%" stop-color="#FFD8A8"/><stop offset="65.19%" stop-color="#FED1A0"/><stop offset="83.59%" stop-color="#FDC592"/><stop offset="99.51%" stop-color="#FCB47F"/><stop offset="100%" stop-color="#FCB37E"/></radialGradient><circle id="a" cx="35" cy="35" r="35"/></defs><g fill="none" fill-rule="evenodd"><mask id="b" fill="#fff"><use xlink:href="#a"/></mask><circle cx="35" cy="35" r="34.5" stroke="#E0E0E0"/><g mask="url(#b)"><g transform="translate(17 14)"><path fill="url(#c)" d="M28.803 41.474H8.197a8.19 8.19 0 00-8.19 8.19v5.686c0 .448.363.81.811.81h35.364a.81.81 0 00.81-.81v-5.686a8.19 8.19 0 00-8.189-8.19z"/><path fill="url(#d)" d="M29.386 42.386h-19.14a7.606 7.606 0 00-7.606 7.606v5.415c0 .416.338.754.754.754h32.788a.81.81 0 00.81-.812v-5.357c0-4.2-3.405-7.606-7.606-7.606z"/><path fill="url(#e)" d="M26.753 42.386H7.613a7.606 7.606 0 00-7.606 7.606v5.415c0 .416.338.754.754.754h32.788a.81.81 0 00.81-.812v-5.357c0-4.2-3.405-7.606-7.606-7.606z"/><path fill="url(#f)" d="M9.14 56.161H26.3L11.613 41.474H9.14z"/><path fill="url(#g)" d="M19.444 47.351h-1.888a4.03 4.03 0 01-4.03-4.03v-5.55h9.948v5.55a4.03 4.03 0 01-4.03 4.03z"/><path fill="url(#h)" d="M23.474 43.32v-5.55h-9.948v.469l8.319 8.319a4.022 4.022 0 001.63-3.237z"/><circle cx="6.667" cy="23.648" r="3.496" fill="url(#i)"/><circle cx="30.333" cy="23.648" r="3.496" fill="url(#j)"/><path fill="url(#k)" d="M18.5 39.33c-6.555 0-11.868-5.314-11.868-11.869V14.974c0-6.554 5.313-11.868 11.868-11.868 6.555 0 11.868 5.314 11.868 11.868v12.487c0 6.555-5.313 11.868-11.868 11.868z"/><path fill="url(#l)" d="M6.631 21.933l16.472 16.47c4.057-1.708 6.965-5.608 7.243-10.217.004-.072.008-.143.01-.215.003-.044.004-.089.006-.133.004-.125.006-.25.006-.373V14.974a11.856 11.856 0 00-6.211-10.436A11.841 11.841 0 0018.5 3.106c-1.434 0-2.808.254-4.08.72-.092.033-.182.068-.272.103a11.94 11.94 0 00-2.284 1.204 11.984 11.984 0 00-1.955 1.653A12.017 12.017 0 008.35 8.82a11.818 11.818 0 00-1.719 6.154v6.959z"/><circle cx="12.538" cy="22.642" r="2.107" fill="url(#m)"/><circle cx="12.538" cy="22.642" r="1.758" fill="url(#n)"/><path fill="url(#o)" d="M13.48 20.758a2.107 2.107 0 01-2.827 2.827 2.108 2.108 0 102.827-2.827z"/><circle cx="24.462" cy="22.642" r="2.107" fill="url(#p)"/><circle cx="24.462" cy="22.642" r="1.758" fill="url(#n)"/><path fill="url(#q)" d="M25.405 20.758a2.107 2.107 0 01-2.828 2.827 2.108 2.108 0 102.828-2.827z"/><path fill="url(#r)" d="M19.174 30.837h-1.348a1.818 1.818 0 01-1.807-2.012l.705-6.554h3.552l.705 6.554a1.817 1.817 0 01-1.807 2.012z"/><path fill="url(#s)" d="M32.311 21.971a7.482 7.482 0 01-7.482-7.482V4.336c0-1.05.851-1.902 1.901-1.902a7.1 7.1 0 017.099 7.099v10.92c0 .839-.68 1.518-1.518 1.518z"/><path fill="url(#t)" d="M9.347 21.971H5.098a1.927 1.927 0 01-1.927-1.927v-3.55C3.171 7.384 10.556 0 19.665 0h.888a5.383 5.383 0 015.382 5.383c0 9.161-7.426 16.588-16.588 16.588z"/><path fill="url(#u)" d="M21.889 1.336H21c-9.11 0-16.494 7.385-16.494 16.494v3.55c0 .18.027.353.073.518.165.047.338.073.518.073h4.25c9.16 0 16.587-7.427 16.587-16.588a5.356 5.356 0 00-.968-3.079 5.35 5.35 0 00-3.078-.968z"/><path fill="url(#v)" d="M11.785 56.16H5.779V42.254c0-1.022.829-1.851 1.852-1.851h2.302c1.023 0 1.852.829 1.852 1.851v13.908z"/><path fill="url(#w)" d="M9.933 40.402H8.894a1.851 1.851 0 00-1.851 1.851v13.908h4.742V42.253a1.852 1.852 0 00-1.852-1.851z"/><path fill="url(#x)" d="M31.221 56.16h-6.006V42.254c0-1.022.829-1.851 1.852-1.851h2.303c1.022 0 1.851.829 1.851 1.851v13.908z"/><path fill="url(#w)" d="M29.37 40.402h-1.04a1.851 1.851 0 00-1.851 1.851v13.908h4.742V42.253a1.852 1.852 0 00-1.852-1.851z"/><path fill="url(#y)" d="M36.992 49.664v5.685a.81.81 0 01-.81.812H31.22V42.254a1.92 1.92 0 00-.05-.432 8.192 8.192 0 015.821 7.842z"/></g></g></g></svg>