<svg xmlns="http://www.w3.org/2000/svg" width="21" height="14" viewBox="0 0 21 14">
    <g fill="none" fill-rule="evenodd" opacity=".9">
        <g fill="black" fill-rule="nonzero">
            <g>
                <g>
                    <g>
                        <g>
                            <path d="M26.372 16.324v-.01c-.005-.251-.206-.45-.46-.45h-.12l-1.865-3.605c-.079-.153-.235-.247-.409-.247l-3.183-.001.122-.963c.034-.384-.085-.748-.335-1.023-.25-.274-.6-.425-.984-.425h-9.88c-.248 0-.459.192-.483.44l-.099.793h5.63c.365 0 .653.296.644.662-.01.365-.314.662-.68.662h-1.877l.001.002H6.88c-.258 0-.473.21-.48.468-.007.259.197.468.456.468h7.3c.338.053.591.346.582.7-.01.39-.333.706-.722.71H8.984c-.261 0-.478.21-.485.472-.007.261.199.473.46.473h4.973c.344.047.602.343.593.701-.01.392-.336.71-.728.71H7.612c-.26 0-.478.211-.485.472-.006.261.2.473.46.473h.415L7.84 19.5c-.035.385.084.748.335 1.023.25.274.6.425.983.425h.357c.17.973 1.012 1.708 2.041 1.708 1.03 0 1.91-.735 2.13-1.707h4.454c.36 0 .7-.138.968-.364.245.235.569.364.923.364h.073c.17.972 1.011 1.707 2.04 1.707 1.03 0 1.91-.735 2.13-1.707h.295c.765 0 1.445-.623 1.514-1.388l.288-3.191v-.013l.002-.02v-.012zM11.581 21.71c-.652 0-1.168-.53-1.151-1.181.017-.652.561-1.182 1.213-1.182.651 0 1.167.53 1.15 1.182-.017.651-.56 1.181-1.212 1.181zm10.588 0c-.651 0-1.168-.53-1.15-1.181.017-.652.56-1.182 1.212-1.182.652 0 1.168.53 1.151 1.182-.017.651-.561 1.181-1.213 1.181zm2.972-2.21c-.025.273-.275.503-.548.503h-.318c-.21-.92-1.027-1.601-2.02-1.601-.99 0-1.844.682-2.102 1.601h-.098c-.12 0-.227-.045-.302-.127-.075-.082-.11-.194-.1-.315l.597-6.604h1.369l-.217 2.404c-.035.385.084.748.335 1.023.25.275.6.426.983.426h2.664l-.243 2.69z" transform="translate(-184 -1050) translate(0 907) translate(12 38) translate(144) translate(22 96)"/>
                        </g>
                    </g>
                </g>
            </g>
        </g>
    </g>
</svg>
