<svg xmlns="http://www.w3.org/2000/svg" width="20" height="20"><path d="M19.476 11.228c.217-.332.487-.745.487-1.246s-.27-.915-.487-1.247c-.121-.186-.247-.378-.272-.508-.028-.141.015-.375.058-.6.075-.404.161-.862-.026-1.313-.19-.458-.578-.723-.921-.957-.186-.127-.378-.259-.454-.372-.079-.117-.127-.347-.174-.57-.086-.403-.182-.861-.53-1.209-.347-.347-.805-.444-1.209-.53-.222-.046-.452-.095-.569-.172-.114-.077-.245-.27-.372-.455-.234-.343-.499-.732-.957-.921a1.537 1.537 0 00-.604-.113c-.247 0-.482.044-.709.087-.183.034-.355.066-.494.066a.645.645 0 01-.106-.008c-.13-.026-.322-.152-.508-.273C11.297.67 10.883.4 10.382.4c-.5 0-.914.27-1.246.487-.186.121-.379.247-.508.273a.658.658 0 01-.107.008c-.138 0-.31-.032-.494-.066a3.778 3.778 0 00-.709-.087c-.225 0-.422.037-.603.113-.458.19-.724.578-.958.92-.127.187-.258.379-.372.455-.116.078-.346.127-.569.174-.404.085-.862.182-1.209.53-.347.347-.444.805-.53 1.208-.046.223-.095.453-.173.57-.077.113-.269.245-.455.372-.343.234-.732.5-.921.957-.187.45-.101.909-.026 1.313.042.226.086.459.058.6-.026.13-.151.322-.273.508C1.07 9.067.8 9.481.8 9.982c0 .5.27.914.487 1.246.122.186.247.379.273.509.028.141-.016.374-.058.6-.075.404-.16.862.026 1.313.19.458.578.723.921.957.186.127.378.258.455.372.078.117.126.347.174.569.085.404.182.862.529 1.21.347.346.805.443 1.21.529.222.047.451.095.568.173.114.076.245.269.372.455.234.343.5.731.957.921.182.075.38.112.603.112.247 0 .483-.044.71-.086.183-.034.356-.067.494-.067.041 0 .077.003.106.01.13.025.322.15.508.272.333.217.746.486 1.247.486.501 0 .914-.27 1.247-.486.186-.122.378-.247.508-.273a.544.544 0 01.106-.009c.138 0 .311.033.494.067.227.042.462.086.71.086.224 0 .421-.037.603-.112.457-.19.723-.578.957-.921.127-.186.258-.379.372-.455.116-.078.346-.126.568-.173.404-.086.863-.183 1.21-.53.347-.347.444-.805.529-1.21.047-.221.096-.452.174-.568.076-.114.269-.246.455-.373.342-.233.731-.499.92-.956.187-.45.102-.909.026-1.313-.042-.226-.085-.459-.058-.6.026-.13.152-.323.273-.509zM5.222 7.161a2.352 2.352 0 012.349-2.348c1.294 0 2.348 1.053 2.348 2.348S8.865 9.51 7.571 9.51a2.352 2.352 0 01-2.349-2.349zm1.635 7.22a.607.607 0 01-.861 0 .61.61 0 010-.862l7.936-7.936a.608.608 0 11.86.862L6.858 14.38zm6.348.763a2.352 2.352 0 01-2.349-2.349 2.351 2.351 0 012.349-2.348c1.295 0 2.348 1.053 2.348 2.348s-1.053 2.349-2.348 2.349z" fill="#FFF" fill-rule="nonzero" opacity=".9"/></svg>