<svg xmlns="http://www.w3.org/2000/svg" width="20" height="20" viewBox="0 0 20 20">
    <g fill="none" fill-rule="evenodd" opacity=".9">
        <g fill="#FFF" fill-rule="nonzero">
            <g>
                <g>
                    <g>
                        <g>
                            <g>
                                <g>
                                    <path d="M18.676 10.828c.217-.332.487-.745.487-1.246s-.27-.915-.487-1.247c-.121-.186-.247-.378-.272-.508-.028-.141.015-.375.058-.6.075-.404.161-.862-.026-1.313-.19-.458-.578-.723-.921-.957-.186-.127-.378-.259-.454-.372-.079-.117-.127-.347-.174-.57-.086-.403-.182-.861-.53-1.209-.347-.347-.805-.444-1.209-.53-.222-.046-.452-.095-.569-.172-.114-.077-.245-.27-.372-.455-.234-.343-.499-.732-.957-.921-.182-.076-.379-.113-.604-.113-.247 0-.482.044-.709.087-.183.034-.355.066-.494.066-.04 0-.077-.003-.106-.008-.13-.026-.322-.152-.508-.273C10.497.27 10.083 0 9.582 0c-.5 0-.914.27-1.246.487-.186.121-.379.247-.508.273-.03.005-.066.008-.107.008-.138 0-.31-.032-.494-.066C7 .659 6.765.615 6.518.615c-.225 0-.422.037-.603.113-.458.19-.724.578-.958.92-.127.187-.258.379-.372.455-.116.078-.346.127-.569.174-.404.085-.862.182-1.209.53-.347.347-.444.805-.53 1.208-.046.223-.095.453-.173.57-.077.113-.269.245-.455.372-.343.234-.732.5-.921.957-.187.45-.101.909-.026 1.313.042.226.086.459.058.6-.026.13-.151.322-.273.508C.27 8.667 0 9.081 0 9.582c0 .5.27.914.487 1.246.122.186.247.379.273.509.028.141-.016.374-.058.6-.075.404-.16.862.026 1.313.19.458.578.723.921.957.186.127.378.258.455.372.078.117.126.347.174.569.085.404.182.862.529 1.21.347.346.805.443 1.21.529.222.047.451.095.568.173.114.076.245.269.372.455.234.343.5.731.957.921.182.075.38.112.603.112.247 0 .483-.044.71-.086.183-.034.356-.067.494-.067.041 0 .077.003.106.01.13.025.322.15.508.272.333.217.746.486 1.247.486.501 0 .914-.27 1.247-.486.186-.122.378-.247.508-.273.03-.006.065-.009.106-.009.138 0 .311.033.494.067.227.042.462.086.71.086.224 0 .421-.037.603-.112.457-.19.723-.578.957-.921.127-.186.258-.379.372-.455.116-.078.346-.126.568-.173.404-.086.863-.183 1.21-.53.347-.347.444-.805.529-1.21.047-.221.096-.452.174-.568.076-.114.269-.246.455-.373.342-.233.731-.499.92-.956.187-.45.102-.909.026-1.313-.042-.226-.085-.459-.058-.6.026-.13.152-.323.273-.509zM4.422 6.761c0-1.294 1.054-2.348 2.349-2.348 1.294 0 2.348 1.053 2.348 2.348S8.065 9.11 6.771 9.11c-1.295 0-2.349-1.054-2.349-2.349zm1.635 7.22c-.119.119-.275.178-.43.178-.157 0-.313-.06-.431-.178-.238-.238-.238-.623 0-.862l7.936-7.936c.237-.238.623-.238.86 0 .239.238.239.624 0 .862L6.058 13.98zm6.348.763c-1.295 0-2.349-1.054-2.349-2.349 0-1.295 1.054-2.348 2.349-2.348 1.295 0 2.348 1.053 2.348 2.348s-1.053 2.349-2.348 2.349z" transform="translate(-242 -1047) translate(0 907) translate(12 38) translate(144) translate(22 96) translate(58.4) translate(6.4 6.4)"/>
                                </g>
                            </g>
                        </g>
                    </g>
                </g>
            </g>
        </g>
    </g>
</svg>
