<svg xmlns="http://www.w3.org/2000/svg" width="9" height="17" viewBox="0 0 9 17">
    <g fill="none" fill-rule="evenodd">
        <g fill="#C9C9D4">
            <g>
                <g>
                    <g>
                        <g>
                            <path d="M26.27 18.923h1.837v7.561c0 .15.12.27.27.27h3.114c.15 0 .27-.12.27-.27v-7.525h2.111c.138 0 .253-.103.269-.24l.32-2.783c.01-.076-.015-.153-.066-.21-.051-.058-.125-.091-.202-.091h-2.432V13.89c0-.526.283-.793.842-.793h1.59c.15 0 .27-.12.27-.27v-2.555c0-.15-.12-.27-.27-.27h-2.191l-.1-.002c-.38 0-1.702.075-2.746 1.035-1.157 1.064-.996 2.339-.958 2.56v2.04H26.27c-.15 0-.27.12-.27.27v2.748c0 .15.121.27.27.27z" transform="translate(-111 -2665) translate(0 2541) translate(16 85) translate(0 29) translate(69.044)"/>
                        </g>
                    </g>
                </g>
            </g>
        </g>
    </g>
</svg>
