<svg xmlns="http://www.w3.org/2000/svg" viewBox="0 0 40 40"><g fill="none" fill-rule="evenodd" opacity=".9"><rect width="38" height="38" x="1" y="1" fill="#5A9BFF" stroke="#FFF" stroke-opacity=".3" stroke-width="2" rx="19"/><g fill="#FFF"><path fill-rule="nonzero" d="M31.345 21.535c.271-.415.609-.932.609-1.557 0-.627-.338-1.144-.609-1.56-.151-.231-.309-.472-.34-.634-.035-.177.02-.468.072-.75.094-.505.202-1.078-.032-1.641-.237-.573-.723-.904-1.151-1.197-.233-.158-.473-.323-.568-.465-.098-.146-.159-.433-.218-.712-.106-.504-.227-1.076-.661-1.511-.434-.434-1.007-.555-1.512-.662-.278-.059-.565-.12-.71-.217-.143-.095-.307-.336-.466-.568-.292-.429-.624-.914-1.196-1.152a1.942 1.942 0 00-.755-.14c-.309 0-.602.055-.886.108a3.672 3.672 0 01-.618.083.84.84 0 01-.133-.01c-.162-.033-.402-.19-.635-.341-.415-.271-.932-.609-1.558-.609-.627 0-1.143.338-1.558.609-.233.151-.474.308-.635.34a.728.728 0 01-.133.011c-.173 0-.39-.04-.618-.083a4.793 4.793 0 00-.886-.107c-.281 0-.528.047-.755.14-.572.238-.904.723-1.197 1.152-.158.232-.323.473-.465.568-.145.098-.433.158-.71.217-.506.107-1.078.228-1.512.662-.434.434-.556 1.007-.662 1.511-.059.278-.12.566-.217.712-.096.142-.336.306-.568.465-.43.293-.915.625-1.152 1.196-.234.564-.127 1.136-.032 1.642.052.282.107.573.072.75-.032.162-.189.403-.341.635-.27.415-.609.932-.609 1.559 0 .625.338 1.142.609 1.557.152.233.309.474.34.636.036.177-.019.468-.071.75-.094.506-.201 1.078.032 1.641.237.572.723.904 1.152 1.197.232.158.472.322.568.465.097.146.158.433.217.71.106.506.228 1.078.661 1.513.435.433 1.007.555 1.512.661.278.06.565.12.71.217.143.096.307.336.466.569.293.428.624.914 1.196 1.151.227.094.474.14.755.14.309 0 .602-.055.886-.108.23-.043.445-.083.618-.083a.72.72 0 01.133.011c.162.032.402.189.635.341.415.271.932.608 1.558.608.627 0 1.143-.337 1.559-.608.232-.152.473-.309.635-.34a.636.636 0 01.133-.012c.173 0 .389.04.617.083.284.054.578.108.887.108.28 0 .527-.046.754-.14.572-.237.904-.722 1.196-1.151.16-.233.324-.474.465-.569.146-.097.433-.158.711-.217.505-.106 1.078-.228 1.512-.662.434-.434.555-1.006.662-1.512.059-.277.12-.565.217-.71.095-.143.336-.307.568-.466.428-.292.914-.624 1.152-1.196.233-.563.126-1.136.032-1.64-.053-.283-.107-.574-.073-.752.032-.161.19-.402.341-.635zm-17.818-5.083a2.94 2.94 0 012.936-2.936 2.94 2.94 0 012.936 2.936 2.94 2.94 0 01-2.936 2.936 2.94 2.94 0 01-2.936-2.936zm2.044 9.024a.76.76 0 01-1.077 0 .762.762 0 010-1.077l9.92-9.92a.762.762 0 011.077 1.077l-9.92 9.92zm7.935.954c-1.618 0-2.936-1.317-2.936-2.936s1.318-2.936 2.936-2.936c1.619 0 2.936 1.317 2.936 2.936s-1.317 2.936-2.936 2.936z"/><path d="M23.506 22.085a1.414 1.414 0 101.413 1.414c0-.78-.634-1.414-1.413-1.414zm-7.043-7.042a1.414 1.414 0 101.413 1.413c0-.779-.634-1.413-1.413-1.413z"/></g></g></svg>
