<svg xmlns="http://www.w3.org/2000/svg" width="20" height="16" viewBox="0 0 13 10"><path d="M4.12 6c.869 0 1.67.263 2.316.707.888.61 1.483 1.561 1.556 2.643.005.075.008.15.008.226V10H0v-.424C0 7.6 1.737 6 3.88 6zm5.403-1C11.44 5 13 6.48 13 8.298V9H8.746A4.037 4.037 0 008.4 7.57a4.206 4.206 0 00-.96-1.35A4.257 4.257 0 007 5.853 3.568 3.568 0 019.33 5zM3.5 0C4.879 0 6 1.122 6 2.5S4.878 5 3.5 5C2.121 5 1 3.878 1 2.5S2.121 0 3.5 0zm5.498 0C10.094 0 10.99.887 11 1.984c.005.53-.196 1.03-.565 1.41A1.979 1.979 0 019.017 4h-.016a1.986 1.986 0 01-1.412-.584A1.989 1.989 0 017 2.016c-.005-.53.196-1.03.565-1.41A1.979 1.979 0 018.983 0z" fill="currentColor" fill-rule="evenodd"/></svg>