<svg xmlns="http://www.w3.org/2000/svg" width="12" height="16" viewBox="0 0 12 16">
    <g fill="none" fill-rule="evenodd">
        <g fill="#FFF" fill-rule="nonzero">
            <g>
                <g>
                    <g>
                        <path d="M23.966 16.221c-.183-2.349-1.294-3.82-2.275-5.12C20.784 9.9 20 8.862 20 7.33c0-.123-.07-.236-.181-.292-.111-.057-.245-.048-.346.025-1.472 1.037-2.7 2.784-3.13 4.452-.297 1.16-.337 2.465-.342 3.327-1.36-.285-1.668-2.287-1.67-2.309-.016-.104-.08-.194-.174-.243-.095-.05-.206-.053-.303-.006-.07.034-1.75.874-1.847 4.225-.007.112-.007.224-.007.336 0 3.256 2.692 5.905 6 5.905h.018c3.3-.009 5.982-2.655 5.982-5.905 0-.164-.034-.623-.034-.623zM18 22.093c-1.103 0-2-.94-2-2.097 0-.04 0-.079.003-.128.013-.487.107-.82.21-1.042.194.41.54.785 1.1.785.185 0 .334-.147.334-.328 0-.467.01-1.006.128-1.493.105-.43.357-.89.675-1.257.142.477.418.863.687 1.24.386.54.785 1.098.855 2.05.004.056.008.112.008.173 0 1.157-.897 2.097-2 2.097z" transform="translate(-44 -1045) translate(0 907) translate(12 38) translate(20 93)"/>
                    </g>
                </g>
            </g>
        </g>
    </g>
</svg>
