<svg viewBox="0 0 1199 237" xmlns="http://www.w3.org/2000/svg" fill-rule="evenodd" clip-rule="evenodd"
     stroke-linejoin="round" stroke-miterlimit="2">
    <path d="M454.513 18.246C453.557 7.31 443.903-.79 432.968.166L18.687 36.413C7.75 37.368-.35 47.022.607 57.957L14.67 218.683c.957 10.934 10.61 19.035 21.546 18.079l414.281-36.245c10.934-.957 19.036-10.611 18.079-21.546L454.513 18.246z"
          fill="#496cff"/>
    <path d="M76.175 117.897v42.428H56.121V73.646h20.054v38.45l30.993-38.45h21.877L95.4 113.754l36.461 46.571H108.66l-32.484-42.428zM170.976 151.541l-34.308-77.895h21.712l23.037 55.852 21.214-55.852h19.557l-47.235 116.345h-19.722l15.745-38.45zM291.63 88.562h-34.307v71.763H237.27V73.646h74.415v86.679H291.63V88.562zM335.55 160.325V73.646h20.054v61.322l37.456-61.322h19.888v86.679H393.06V99.003l-37.456 61.322H335.55z"
          fill="#fff" fill-rule="nonzero"/>
    <path d="M532.443 123.532c-.497 4.806-1.16 9.115-1.989 12.596-.829 3.48-1.823 6.63-3.149 9.281h33.644V88.396h-26.352c-.165 5.304-.497 11.105-.828 17.568-.332 6.464-.829 12.265-1.326 17.568zm-15.91 57.841h-17.071V145.41h5.469c3.149-1.16 5.303-3.646 6.63-7.79 1.16-3.977 2.154-9.115 2.982-15.413.498-3.646.83-7.79 1.16-12.264.332-4.475.664-8.784.83-13.259.165-4.475.33-8.618.496-12.761.166-3.978.166-7.459.166-10.276h63.642v71.763h12.596v35.964h-17.07l-.663-21.048h-58.505l-.663 21.048zM645.308 161.982c-6.464 0-12.264-.994-17.568-3.149-5.469-1.988-10.11-4.972-13.922-8.783-3.977-3.812-7.126-8.287-9.115-13.756-2.154-5.47-3.315-11.602-3.315-18.397v-1.326c0-6.795 1.16-12.761 3.315-18.396 1.989-5.304 5.138-10.11 8.95-14.088 3.812-3.812 8.452-6.795 13.756-9.115 5.138-2.155 10.938-3.15 17.07-3.15 5.47 0 10.607.83 15.58 2.487 4.806 1.657 9.115 4.309 12.927 7.79 3.812 3.48 6.795 8.12 9.115 13.59 2.155 5.469 3.315 12.098 3.315 19.888v5.8h-63.477c.332 8.287 2.487 14.585 6.63 19.06 3.978 4.475 9.778 6.63 17.236 6.63 6.132 0 10.773-1.16 13.922-3.481 3.149-2.32 5.138-5.635 5.966-9.778h19.391c-1.491 9.115-5.635 16.076-12.595 20.882-6.961 4.806-16.077 7.292-27.18 7.292zm20.22-54.029c-.497-7.458-2.652-12.927-6.132-16.408-3.647-3.48-8.619-5.137-14.917-5.137-6.132 0-11.104 1.823-14.916 5.635-3.812 3.811-6.298 9.115-7.292 15.91h43.257zM703.315 73.646h20.054v71.763h26.352V73.646h20.054v71.763h26.352V73.646h20.053v86.679H703.315V73.646zM878.165 161.982c-6.463 0-12.264-.994-17.568-3.149-5.469-1.988-10.11-4.972-13.921-8.783-3.978-3.812-7.127-8.287-9.116-13.756-2.154-5.47-3.314-11.602-3.314-18.397v-1.326c0-6.795 1.16-12.761 3.314-18.396 1.99-5.304 5.138-10.11 8.95-14.088 3.812-3.812 8.452-6.795 13.756-9.115 5.138-2.155 10.938-3.15 17.07-3.15 5.47 0 10.608.83 15.58 2.487 4.806 1.657 9.115 4.309 12.927 7.79 3.812 3.48 6.795 8.12 9.115 13.59 2.155 5.469 3.315 12.098 3.315 19.888v5.8h-63.476c.331 8.287 2.486 14.585 6.63 19.06 3.977 4.475 9.777 6.63 17.235 6.63 6.133 0 10.773-1.16 13.922-3.481 3.15-2.32 5.138-5.635 5.967-9.778h19.39c-1.491 9.115-5.634 16.076-12.595 20.882-6.961 4.806-16.077 7.292-27.18 7.292zm20.22-54.029c-.497-7.458-2.652-12.927-6.132-16.408-3.646-3.48-8.619-5.137-14.916-5.137-6.133 0-11.105 1.823-14.917 5.635-3.811 3.811-6.297 9.115-7.292 15.91h43.257zM936.172 73.646h34.97c4.475 0 8.784.331 12.596 1.16 3.812.829 7.293 1.989 10.11 3.646 2.652 1.823 4.972 3.978 6.63 6.795 1.491 2.818 2.32 6.133 2.32 10.11v.332c0 4.64-1.16 8.618-3.646 12.098-2.652 3.48-6.464 5.801-11.768 6.961 5.967 1.16 10.607 3.315 14.088 6.464 3.48 3.149 5.138 7.458 5.138 13.093v.497c0 8.287-2.818 14.585-8.287 18.894-5.635 4.475-13.59 6.629-24.032 6.629h-38.119V73.646zm20.054 13.424v22.043h12.099c4.806 0 8.452-.994 10.607-2.817 2.154-1.823 3.315-4.64 3.315-8.619v-.331c0-3.978-1.16-6.63-3.647-8.121-2.486-1.492-6.132-2.155-10.938-2.155h-11.436zm0 35.468V146.9h14.253c5.138 0 9.116-.995 11.768-2.818 2.486-1.823 3.812-4.972 3.812-9.115v-.332c0-8.12-4.973-12.098-14.917-12.098h-14.916zM1049.37 125.52c-.498 5.802-1.327 11.105-2.487 15.58-1.16 4.475-2.652 8.287-4.475 11.27-1.989 3.149-4.309 5.469-7.126 6.96-2.818 1.492-6.298 2.32-10.442 2.32-2.651 0-4.474-.165-5.635-.496-.663-.166-1.16-.497-1.657-.663v-16.74c.166.166.497.166.994.332.83.166 1.824.332 2.984.332 3.314 0 5.635-1.99 7.126-6.133 1.492-3.977 2.486-9.28 3.15-16.076.33-3.646.662-8.287.828-13.756.166-5.303.331-10.773.497-15.91.166-6.132.332-12.43.497-18.894h63.145v86.679h-19.888V88.562h-25.689c-.166 2.818-.166 5.8-.331 8.95-.166 3.149-.166 6.463-.332 9.612-.165 3.15-.331 6.464-.497 9.447-.166 3.15-.497 6.132-.663 8.95zM1158.762 161.982c-6.463 0-12.264-.994-17.568-3.149-5.469-1.988-10.11-4.972-13.921-8.783-3.978-3.812-7.127-8.287-9.116-13.756-2.154-5.47-3.314-11.602-3.314-18.397v-1.326c0-6.795 1.16-12.761 3.314-18.396 1.99-5.304 5.138-10.11 8.95-14.088 3.812-3.812 8.452-6.795 13.756-9.115 5.138-2.155 10.938-3.15 17.07-3.15 5.47 0 10.608.83 15.58 2.487 4.806 1.657 9.115 4.309 12.927 7.79 3.812 3.48 6.795 8.12 9.115 13.59 2.155 5.469 3.315 12.098 3.315 19.888v5.8h-63.476c.331 8.287 2.486 14.585 6.63 19.06 3.977 4.475 9.777 6.63 17.235 6.63 6.133 0 10.773-1.16 13.922-3.481 3.15-2.32 5.138-5.635 5.967-9.778h19.39c-1.491 9.115-5.634 16.076-12.595 20.882-6.961 4.806-16.076 7.292-27.18 7.292zm20.22-54.029c-.497-7.458-2.652-12.927-6.132-16.408-3.646-3.48-8.618-5.137-14.916-5.137-6.133 0-11.105 1.823-14.917 5.635-3.811 3.811-6.297 9.115-7.292 15.91h43.257z"
          fill-rule="nonzero"/>
</svg>
