<svg xmlns="http://www.w3.org/2000/svg" width="32" height="25" viewBox="0 0 32 25">
    <g fill="none" fill-rule="evenodd">
        <g fill="#000" fill-rule="nonzero">
            <g>
                <g>
                    <path d="M28.943.059H2.994C1.344.059 0 1.402 0 3.053v17.965c0 1.65 1.343 2.994 2.994 2.994h25.95c1.65 0 2.993-1.343 2.993-2.994V3.053c0-1.651-1.343-2.994-2.994-2.994zm0 1.996c.136 0 .265.028.383.077L15.969 13.71 2.612 2.132c.117-.049.246-.077.382-.077h25.95zm0 19.96H2.994c-.55 0-.998-.447-.998-.997V4.24l13.319 11.543c.188.162.42.243.654.243.233 0 .465-.08.654-.243L29.94 4.24v16.777c0 .55-.447.998-.998.998z" transform="translate(-16 -280) translate(0 260) translate(16 20)"/>
                </g>
            </g>
        </g>
    </g>
</svg>
