<svg xmlns="http://www.w3.org/2000/svg" width="32" height="25" viewBox="0 0 32 24">
  <path
    d="M28.943.059H2.994A2.998 2.998 0 000 3.053v17.965a2.998 2.998 0 002.994 2.994h25.95a2.997 2.997 0 002.993-2.994V3.053A2.997 2.997 0 0028.943.059zm0 1.996c.136 0 .265.028.383.077L15.969 13.71 2.612 2.132a.987.987 0 01.382-.077h25.95zm0 19.96H2.994a.999.999 0 01-.998-.997V4.24l13.319 11.543a.998.998 0 001.308 0L29.94 4.24v16.777c0 .55-.447.998-.998.998z"
    fill="currentColor" fill-rule="nonzero" /></svg>