<svg xmlns="http://www.w3.org/2000/svg" width="19" height="19" viewBox="0 0 19 19">
    <g fill="none" fill-rule="evenodd">
        <g fill="#C9C9D4">
            <g>
                <g>
                    <g>
                        <g>
                            <path d="M32.15 18.53c0 1.509-1.224 2.733-2.733 2.733-1.509 0-2.733-1.224-2.733-2.733 0-1.509 1.224-2.733 2.733-2.733 1.509 0 2.733 1.23 2.733 2.733m-2.733-9.082c-5.01 0-9.088 4.077-9.088 9.088 0 5.01 4.077 9.081 9.088 9.081 1.833 0 3.604-.546 5.119-1.582l.028-.018-1.224-1.423-.023.011c-1.167.746-2.51 1.145-3.9 1.145-3.98 0-7.22-3.24-7.22-7.22 0-3.98 3.24-7.22 7.22-7.22 3.98 0 7.22 3.24 7.22 7.22 0 .518-.057 1.036-.17 1.554-.229.94-.884 1.225-1.379 1.185-.495-.04-1.076-.393-1.082-1.259v-1.48c0-2.534-2.06-4.595-4.595-4.595-2.534 0-4.595 2.061-4.595 4.595s2.061 4.595 4.595 4.595c1.23 0 2.386-.484 3.257-1.355.507.786 1.333 1.28 2.272 1.355.08.006.165.011.245.011.66 0 1.315-.222 1.845-.62.546-.416.95-1.014 1.173-1.731.034-.114.102-.382.102-.382v-.011c.131-.575.194-1.15.194-1.862.005-5.005-4.071-9.082-9.082-9.082" transform="translate(-242 -2664) translate(0 2541) translate(16 85) translate(0 29) translate(206.404)"/>
                        </g>
                    </g>
                </g>
            </g>
        </g>
    </g>
</svg>
