<svg xmlns="http://www.w3.org/2000/svg" width="13" height="19" viewBox="0 0 13 19">
    <g fill="none" fill-rule="evenodd">
        <g fill="#C9C9D4">
            <g>
                <g>
                    <g>
                        <g>
                            <g>
                                <path fill-rule="nonzero" d="M5.45 9.62c2.657 0 4.81-2.154 4.81-4.81C10.26 2.153 8.107 0 5.45 0 2.796 0 .642 2.153.642 4.81c.004 2.654 2.155 4.806 4.81 4.81zm0-7.4c1.431 0 2.59 1.16 2.59 2.59S6.882 7.4 5.45 7.4c-1.43 0-2.589-1.16-2.589-2.59s1.16-2.59 2.59-2.59z" transform="translate(-177 -2664) translate(0 2541) translate(16 85) translate(0 29) translate(137.36) translate(24.942 9.448)"/>
                                <path d="M10.078 11.75c.513-.327.823-.88.824-1.472.007-.492-.281-.944-.74-1.16-.47-.227-1.034-.176-1.453.132-1.941 1.364-4.574 1.364-6.516 0-.419-.306-.982-.357-1.453-.132-.458.216-.746.667-.74 1.16.001.592.31 1.144.824 1.47.658.423 1.375.753 2.129.981.128.039.26.074.396.107l-2.196 2.07c-.576.54-.59 1.427-.031 1.982.559.556 1.479.569 2.055.03l.035-.034 2.239-2.234 2.243 2.238c.558.556 1.478.57 2.055.032.577-.539.591-1.426.033-1.982l-.036-.034-2.193-2.069c.137-.033.269-.07.398-.107.753-.228 1.47-.557 2.127-.979z" transform="translate(-177 -2664) translate(0 2541) translate(16 85) translate(0 29) translate(137.36) translate(24.942 9.448)"/>
                            </g>
                        </g>
                    </g>
                </g>
            </g>
        </g>
    </g>
</svg>
