<svg xmlns="http://www.w3.org/2000/svg" width="20" height="20" viewBox="0 0 20 20">
    <g fill="none" fill-rule="evenodd">
        <g fill="#7B8197" fill-rule="nonzero">
            <g>
                <g>
                    <g>
                        <path d="M18.333 4.269c0-.697-.259-1.351-.728-1.843-.967-1.014-2.54-1.012-3.506.004L4.12 12.96c-.326.342-.573.764-.718 1.221l-.009.03-.892 4.122 3.934-.925.029-.01c.435-.152.837-.412 1.163-.754l9.982-10.532c.468-.493.726-1.147.725-1.843zM3.701 17.509l-.309-.282.524-2.441 2.13 2.141-2.345.583zm13.33-12.275l-10.1 11.072-2.546-2.41 7.702-7.893.788.748.442.402.505-.584L12.66 5.37l1.27-1.31 1.162 1.173.59-.653-1.231-1.248.481-.46c.495-.529 1.604-.36 2.1.168.24.256.426.664.426 1.026 0 .363-.186.91-.426 1.167zM8.696 17.398h9.567l.071.935H7.5l1.195-.935z" transform="translate(-267 -712) translate(0 650) translate(13 41) translate(254 21)"/>
                    </g>
                </g>
            </g>
        </g>
    </g>
</svg>
