<svg xmlns="http://www.w3.org/2000/svg" viewBox="0 0 24 23"><g fill="#7B8197" fill-rule="nonzero"><path d="M17.648 13.524h-3.765a.703.703 0 00-.703.703v3.798c0 .388.315.703.703.703h3.765a.704.704 0 00.704-.703v-3.798a.704.704 0 00-.704-.703zm-.703 3.798h-2.359v-2.391h2.36v2.391z"/><path d="M23.973 5.782l-.99-3.462C22.614 1.02 21.262 0 19.909 0H4.092C2.74 0 1.388 1.02 1.016 2.32L.027 5.782A.743.743 0 000 5.975v2.26c0 1.252.782 2.325 1.883 2.757v8.916a2.589 2.589 0 002.586 2.586H19.53a2.589 2.589 0 002.586-2.586v-8.916A2.965 2.965 0 0024 8.234V5.975c0-.065-.01-.13-.027-.193zM2.368 2.707c.198-.693 1.004-1.3 1.724-1.3h15.816c.72 0 1.526.607 1.724 1.3l.733 2.565H1.635l.733-2.565zm3.557 3.971h3.113v1.556c0 .858-.699 1.557-1.557 1.557s-1.556-.699-1.556-1.557V6.678zm4.519 0h3.112v1.556c0 .858-.698 1.557-1.556 1.557a1.559 1.559 0 01-1.556-1.557V6.678zm4.518 0h3.113v1.556c0 .858-.698 1.557-1.556 1.557a1.56 1.56 0 01-1.557-1.557V6.678zM1.406 8.234V6.678H4.52v1.556c0 .858-.698 1.557-1.557 1.557a1.559 1.559 0 01-1.556-1.557zm5.649 12.854v-4.243h2.36v4.243h-2.36zm12.476 0h-8.71v-4.946a.704.704 0 00-.704-.703H6.352a.704.704 0 00-.704.703v4.946h-1.18c-.65 0-1.179-.53-1.179-1.18v-8.73a2.96 2.96 0 001.933-1.03 2.96 2.96 0 004.519-.001 2.956 2.956 0 004.519 0 2.952 2.952 0 004.518 0 2.96 2.96 0 001.933 1.032v8.729c0 .65-.53 1.18-1.18 1.18zM21.038 9.79a1.559 1.559 0 01-1.557-1.557V6.678h3.113v1.556c0 .858-.698 1.557-1.556 1.557z"/></g></svg>
