<svg xmlns="http://www.w3.org/2000/svg" width="20" height="20"><g fill="#7B8197" fill-rule="evenodd"><path fill-rule="nonzero" d="M17.644 3.468h-3.81v-.621c0-1.11-.903-2.014-2.014-2.014H8.199c-1.11 0-2.014.903-2.014 2.014v.621h-3.81a.506.506 0 00-.508.508c0 .283.226.509.508.509h.919v11.94a2.722 2.722 0 002.718 2.719h7.996a2.722 2.722 0 002.718-2.718V4.485h.918a.506.506 0 00.508-.509.506.506 0 00-.508-.508zM7.201 2.847a1 1 0 01.998-.998h3.621a1 1 0 01.998.998v.621H7.201v-.621zm8.508 13.579c0 .937-.764 1.701-1.701 1.701H6.012a1.704 1.704 0 01-1.702-1.701V4.485h11.403v11.94h-.004z"/><path d="M10.01 16.305a.506.506 0 00.508-.508V6.815a.506.506 0 00-.508-.508.506.506 0 00-.509.508v8.978a.51.51 0 00.509.512zm-3.317-.561a.506.506 0 00.508-.508V7.373a.506.506 0 00-.508-.508.506.506 0 00-.508.508v7.864c0 .282.23.508.508.508zm6.633 0a.506.506 0 00.508-.508V7.373a.506.506 0 00-.508-.508.506.506 0 00-.508.508v7.864c0 .282.226.508.508.508z"/></g></svg>