<svg xmlns="http://www.w3.org/2000/svg" width="20" height="20" viewBox="0 0 20 20">
    <g fill="none" fill-rule="evenodd">
        <g fill="#7B8197">
            <g>
                <g>
                    <g>
                        <g>
                            <path fill-rule="nonzero" d="M15.811 2.635h-3.81v-.621C12.001.904 11.098 0 9.987 0H6.366c-1.11 0-2.014.903-2.014 2.014v.621H.542c-.282 0-.508.226-.508.508 0 .283.226.509.508.509h.919v11.94c0 1.499 1.22 2.719 2.718 2.719h7.996c1.498 0 2.718-1.22 2.718-2.718V3.652h.918c.282 0 .508-.226.508-.509 0-.282-.226-.508-.508-.508zM5.368 2.014c0-.55.448-.998.998-.998h3.621c.55 0 .998.448.998.998v.621H5.368v-.621zm8.508 13.579c0 .937-.764 1.701-1.701 1.701H4.179c-.938 0-1.702-.764-1.702-1.701V3.652H13.88v11.94h-.004z" transform="translate(-267 -750) translate(0 650) translate(13 41) translate(254 59) translate(1.833 .833)"/>
                            <path d="M8.177 15.472c.282 0 .508-.226.508-.508V5.982c0-.282-.226-.508-.508-.508-.283 0-.509.226-.509.508v8.978c0 .283.226.512.509.512zM4.86 14.911c.282 0 .508-.226.508-.508V6.54c0-.282-.226-.508-.508-.508-.282 0-.508.226-.508.508v7.864c0 .282.23.508.508.508zM11.493 14.911c.282 0 .508-.226.508-.508V6.54c0-.282-.226-.508-.508-.508-.282 0-.508.226-.508.508v7.864c0 .282.226.508.508.508z" transform="translate(-267 -750) translate(0 650) translate(13 41) translate(254 59) translate(1.833 .833)"/>
                        </g>
                    </g>
                </g>
            </g>
        </g>
    </g>
</svg>
