<svg xmlns="http://www.w3.org/2000/svg" width="18" height="18"><path d="M15.879 13.432l-2.627-1.313a.724.724 0 01-.402-.65v-.93a6.292 6.292 0 001.01-1.857 1.09 1.09 0 00.64-.995v-1.1c0-.264-.099-.52-.275-.721V4.403c.015-.151.076-1.052-.575-1.794-.565-.645-1.482-.972-2.725-.972s-2.16.327-2.725.971c-.394.45-.527.958-.567 1.322-.472-.244-1.027-.368-1.658-.368-2.857 0-3.023 2.436-3.025 2.475v1.26c-.178.194-.275.418-.275.64v.95a.98.98 0 00.36.76c.227.856.785 1.502 1.003 1.73v.753a.598.598 0 01-.322.527l-1.83 1.148A2.179 2.179 0 00.75 15.718v1.044h16.5v-1.111c0-.946-.526-1.796-1.371-2.219zM4.6 15.597v.615H1.3v-.494c0-.596.326-1.145.864-1.439l1.83-1.147c.366-.2.593-.584.593-1.002v-.987L4.5 11.06c-.007-.006-.738-.697-.954-1.637l-.025-.11-.094-.06a.438.438 0 01-.202-.367v-.95c0-.099.067-.216.185-.322l.09-.082v-1.48c.004-.078.148-1.94 2.475-1.94.658 0 1.212.152 1.65.452v1.3a1.1 1.1 0 00-.275.723v1.1c0 .083.01.165.028.245.007.032.022.061.032.092.015.046.027.094.049.137v.002c.07.145.173.275.303.378l.004.015c.017.063.034.126.053.187l.022.072.013.038.028.089.054.152.027.065c.023.057.045.113.069.168l.016.04.016.035.021.046c.027.059.054.116.081.17l.013.028.052.1.088.161.042.074c.04.068.078.13.114.188l.024.037c.066.103.124.187.172.252l.034.047c.006.008.014.02.02.026v.91c0 .267-.145.51-.379.638l-.728.397-.126-.011-.052.109-1.547.844A2.48 2.48 0 004.6 15.596zm12.1.615H5.15v-.615a1.93 1.93 0 011.006-1.695l2.454-1.338c.41-.224.665-.654.665-1.121v-1.105h0l-.053-.064-.01-.013a.781.781 0 01-.046-.058l-.005-.006-.052-.07s0 0 0 0a4.868 4.868 0 01-.15-.22L8.955 9.9l-.085-.136-.006-.011A5.683 5.683 0 018.67 9.4s0 0 0 0a5.117 5.117 0 01-.104-.221h0l-.015-.032h0l-.045-.108L8.489 9l-.044-.115a5.755 5.755 0 01-.08-.233L8.35 8.6l-.005-.016a5.2 5.2 0 01-.072-.267l-.025-.109-.093-.06a.548.548 0 01-.255-.461v-1.1a.54.54 0 01.184-.406l.091-.082V4.29l-.007-.006c-.01-.198.002-.807.446-1.313.456-.52 1.233-.784 2.311-.784 1.074 0 1.85.262 2.306.778.536.605.447 1.38.446 1.386l-.002 1.75.09.081c.12.107.185.251.185.405v1.1c0 .24-.157.45-.391.523l-.137.042-.044.136a5.753 5.753 0 01-.78 1.571c-.081.116-.16.218-.23.297l-.068.078v1.134c0 .487.27.924.706 1.142l2.627 1.314a1.92 1.92 0 011.067 1.727v.561z" fill="#7B8197" fill-rule="nonzero" stroke="#7B8197" stroke-width=".4"/></svg>