<svg xmlns="http://www.w3.org/2000/svg" width="40" height="13"><g fill="none" fill-rule="evenodd"><path fill="#2394BC" fill-rule="nonzero" d="M16.337.032L14.33 12.514h3.206L19.542.032h-3.205zm9.67 5.084c-1.12-.553-1.806-.927-1.806-1.492.013-.515.58-1.042 1.847-1.042a5.593 5.593 0 012.388.462l.29.13.437-2.612a8.118 8.118 0 00-2.878-.514c-3.166 0-5.396 1.646-5.41 4-.026 1.738 1.597 2.702 2.81 3.28 1.241.594 1.663.978 1.663 1.505-.013.81-1.003 1.183-1.926 1.183-1.278 0-1.965-.192-3.008-.643l-.422-.193-.449 2.715c.753.334 2.138.629 3.576.644 3.365 0 5.554-1.621 5.582-4.13.01-1.377-.845-2.431-2.693-3.293zM37.383.07h-2.48c-.765 0-1.345.22-1.676 1.004l-4.763 11.44h3.365l.927-2.477h3.764l.48 2.487h2.968L37.382.07zm-3.694 7.468c.065.006 1.291-4.043 1.291-4.043l.977 4.043h-2.268zM11.652.032L8.51 8.512 8.168 6.84c-.58-1.93-2.401-4.027-4.433-5.069l2.876 10.73h3.392L15.044.034h-3.392V.032z"/><path fill="#EFC75E" d="M7.112 1.641C6.867.69 6.086.048 5.026.034H.051L0 .264c3.88.958 7.138 3.901 8.195 6.67L7.112 1.642z"/></g></svg>