<svg xmlns="http://www.w3.org/2000/svg" width="23" height="13" viewBox="0 0 23 13">
    <g fill="none" fill-rule="evenodd">
        <g fill="#C9C9D4">
            <g>
                <g>
                    <g>
                        <path d="M36.723 20.246c.76.742 1.562 1.44 2.244 2.258.301.363.587.737.805 1.159.309.599.029 1.258-.508 1.293l-3.339-.001c-.86.071-1.548-.275-2.125-.864-.463-.47-.89-.972-1.335-1.459-.182-.198-.373-.386-.6-.534-.457-.295-.852-.205-1.113.27-.265.484-.325 1.02-.351 1.558-.036.786-.274.993-1.063 1.029-1.688.08-3.29-.176-4.777-1.027-1.312-.75-2.33-1.81-3.215-3.01-1.724-2.335-3.044-4.902-4.23-7.54-.267-.595-.072-.914.584-.925 1.089-.021 2.178-.02 3.268-.002.443.007.736.26.907.679.59 1.449 1.31 2.827 2.215 4.105.241.34.487.68.837.92.387.265.682.177.864-.254.116-.274.166-.568.192-.861.087-1.008.098-2.014-.053-3.018-.093-.627-.446-1.032-1.072-1.151-.319-.06-.271-.18-.117-.361.269-.314.521-.51 1.024-.51h3.773c.594.117.726.384.808.982l.003 4.19c-.007.232.115.919.532 1.072.334.109.553-.158.754-.37.903-.958 1.548-2.091 2.124-3.265.255-.515.475-1.051.688-1.587.158-.397.406-.592.853-.584l3.631.004c.108 0 .217.001.321.019.612.104.78.368.591.965-.298.938-.877 1.719-1.444 2.504-.605.838-1.253 1.647-1.854 2.49-.551.77-.507 1.158.178 1.826z" transform="translate(-33 -2667) translate(0 2541) translate(16 85) translate(0 29)"/>
                    </g>
                </g>
            </g>
        </g>
    </g>
</svg>
