<svg xmlns="http://www.w3.org/2000/svg" width="110" height="109"><defs><linearGradient id="a" x1="64.72%" x2="141.246%" y1="59.017%" y2="105.797%"><stop offset="0%" stop-color="#C3C3C3"/><stop offset="100%" stop-color="#777"/></linearGradient><linearGradient id="b" x1="1.672%" x2="101.67%" y1="49.49%" y2="52.484%"><stop offset="0%" stop-color="#C3C3C3"/><stop offset="100%" stop-color="#777"/></linearGradient><linearGradient id="c" x1="68.884%" x2="21.796%" y1="72.399%" y2="18.764%"><stop offset="0%" stop-color="#C3C3C3" stop-opacity="0"/><stop offset="26.7%" stop-color="#A4A4A4" stop-opacity=".267"/><stop offset="54.2%" stop-color="#8B8B8B" stop-opacity=".542"/><stop offset="79.4%" stop-color="#7C7C7C" stop-opacity=".794"/><stop offset="100%" stop-color="#777"/></linearGradient><linearGradient id="d" x1="75.241%" x2="24.868%" y1="24.743%" y2="75.17%"><stop offset="0%" stop-color="#62E1FB"/><stop offset="100%" stop-color="#00A2F3"/></linearGradient><linearGradient id="e" x1="18.575%" x2="80.154%" y1="25.554%" y2="73.465%"><stop offset="0%" stop-color="#777"/><stop offset="100%" stop-color="#3B4041"/></linearGradient><linearGradient id="f" x1="54.941%" x2="45.277%" y1="89.615%" y2="12.204%"><stop offset="0%" stop-color="#777"/><stop offset="100%" stop-color="#3B4041"/></linearGradient><linearGradient id="g" x1="18.619%" x2="80.179%" y1="25.592%" y2="73.496%"><stop offset="0%" stop-color="#C3C3C3"/><stop offset="100%" stop-color="#777"/></linearGradient><linearGradient id="h" x1="18.575%" x2="80.146%" y1="25.558%" y2="73.461%"><stop offset="0%" stop-color="#777"/><stop offset="100%" stop-color="#3B4041"/></linearGradient><linearGradient id="i" x1="54.935%" x2="45.271%" y1="89.618%" y2="12.206%"><stop offset="0%" stop-color="#777"/><stop offset="100%" stop-color="#3B4041"/></linearGradient><linearGradient id="j" x1="18.609%" x2="80.17%" y1="25.594%" y2="73.498%"><stop offset="0%" stop-color="#C3C3C3"/><stop offset="100%" stop-color="#777"/></linearGradient><linearGradient id="k" x1="43.716%" x2="37.43%" y1="51.322%" y2="71.43%"><stop offset="0%" stop-color="#7A94FF"/><stop offset="100%" stop-color="#496CFF"/></linearGradient><linearGradient id="l" x1="40.329%" x2="54.973%" y1="62.155%" y2="15.316%"><stop offset="0%" stop-color="#496CFF" stop-opacity="0"/><stop offset="100%" stop-color="#496CFF"/></linearGradient><linearGradient id="m" x1="49.998%" x2="49.998%" y1="32.075%" y2="127.153%"><stop offset="0%" stop-color="#51D6FA"/><stop offset="100%" stop-color="#0EABF4"/></linearGradient></defs><g fill="none" fill-rule="evenodd"><circle cx="5.079" cy="49.48" r="3.861" fill="url(#a)"/><path fill="url(#b)" d="M106.163 81.13l-74.63.06a5.386 5.386 0 01-5.383-5.374l-.05-42.191c-.006-8.182-3.199-15.871-8.989-21.652l-1.838-1.835c-1.38-1.377-3.624-1.502-5.065-.19a3.622 3.622 0 00-.123 5.241l1.911 1.908c4.178 4.171 6.584 9.644 6.84 15.506H5.743c-2.188 0-4.045 1.79-4.005 3.977a3.904 3.904 0 003.902 3.828h10.647a2.585 2.585 0 110 5.168H14.3a3.904 3.904 0 000 7.805h2.192a2.396 2.396 0 110 4.791h-2.193a3.902 3.902 0 000 7.804h4.6l.012 9.846c.005 6.958 5.67 12.613 12.628 12.608l74.63-.06a3.62 3.62 0 10-.005-7.24z"/><path fill="url(#c)" d="M17.112 11.973L15.2 10.066a3.62 3.62 0 10-5.115 5.123l1.91 1.908a23.345 23.345 0 014.798 6.914l5.381-5.39a30.79 30.79 0 00-5.063-6.648z"/><path fill="url(#d)" d="M1.675 1.748a5.726 5.726 0 018.1-.007l4.614 4.606a5.728 5.728 0 01-8.095 8.107L1.681 9.85a5.73 5.73 0 01-.006-8.102z"/><circle cx="40.203" cy="94.565" r="13.868" fill="url(#e)"/><circle cx="40.203" cy="94.565" r="9.545" fill="url(#f)"/><circle cx="40.203" cy="94.565" r="4.595" fill="url(#g)"/><circle cx="87.587" cy="94.565" r="13.868" fill="url(#h)"/><circle cx="87.587" cy="94.565" r="9.545" fill="url(#i)"/><circle cx="87.587" cy="94.565" r="4.595" fill="url(#j)"/><path fill="url(#k)" d="M83.875 79.23H34.59c-2.113 0-3.647-1.5-3.665-3.585l-.367-42.36h74.952l-16.597 42.36c-.816 2.086-2.924 3.585-5.038 3.585z"/><path fill="#4D68D8" d="M78.78 74.375c-.137 0-.274-.01-.41-.032-1.476-.23-2.25-1.656-1.73-3.186l8.845-25.961c.522-1.53 2.142-2.585 3.618-2.355 1.477.23 2.251 1.656 1.73 3.186l-8.845 25.961c-.473 1.39-1.852 2.387-3.207 2.387zm-37.235 0c-1.355 0-2.352-.997-2.293-2.387l1.101-25.96c.065-1.53 1.386-2.957 2.951-3.187 1.564-.23 2.78.825 2.715 2.355l-1.101 25.96c-.065 1.531-1.386 2.958-2.95 3.187a2.942 2.942 0 01-.423.032zm24.97-.001c-.048 0-.096 0-.144-.003-1.52-.08-2.45-1.396-2.075-2.941l6.293-25.961c.375-1.546 1.913-2.731 3.43-2.655 1.521.079 2.45 1.395 2.076 2.94l-6.293 25.962c-.362 1.496-1.815 2.658-3.287 2.658zm-12.704 0c-1.472 0-2.48-1.162-2.269-2.658l3.654-25.961c.217-1.545 1.65-2.862 3.201-2.941 1.55-.078 2.632 1.11 2.415 2.655l-3.654 25.96c-.217 1.546-1.65 2.863-3.202 2.942a3.507 3.507 0 01-.145.003z"/><path fill="url(#l)" d="M30.615 39.855L62.202 79.23h21.673c2.114 0 4.221-1.5 5.038-3.585l16.597-42.36H30.558l.057 6.57z"/><path fill="url(#m)" d="M105.18 40.142H30.888a3.935 3.935 0 010-7.87h74.292a3.935 3.935 0 110 7.87z"/></g></svg>