<svg xmlns="http://www.w3.org/2000/svg" width="110" height="85"><defs><linearGradient id="a" x1="17.944%" x2="73.478%" y1="-.41%" y2="86.928%"><stop offset="0%" stop-color="#62E1FB"/><stop offset="100%" stop-color="#00A2F3"/></linearGradient><linearGradient id="b" x1="82.996%" x2="31.455%" y1="81.671%" y2="24.375%"><stop offset="0%" stop-color="#00A2F3" stop-opacity="0"/><stop offset="100%" stop-color="#0075CD"/></linearGradient><linearGradient id="c" x1="63.756%" x2="43.318%" y1="71.989%" y2="42.251%"><stop offset="0%" stop-color="#00A2F3" stop-opacity="0"/><stop offset="100%" stop-color="#0075CD"/></linearGradient><linearGradient id="d" x1="49.997%" x2="49.997%" y1="26.963%" y2="113.722%"><stop offset="0%" stop-color="#FFF"/><stop offset="100%" stop-color="#E2EDF2"/></linearGradient><linearGradient id="e" x1="49.998%" x2="49.998%" y1="26.957%" y2="113.707%"><stop offset="0%" stop-color="#FFF"/><stop offset="100%" stop-color="#E2EDF2"/></linearGradient><linearGradient id="f" x1="17.94%" x2="73.474%" y1="-.412%" y2="86.926%"><stop offset="0%" stop-color="#A7F3CE"/><stop offset="100%" stop-color="#61DB99"/></linearGradient><linearGradient id="g" x1="82.994%" x2="31.453%" y1="81.672%" y2="24.377%"><stop offset="0%" stop-color="#61DB99" stop-opacity="0"/><stop offset="100%" stop-color="#009E74"/></linearGradient><linearGradient id="h" x1="63.752%" x2="43.315%" y1="71.989%" y2="42.251%"><stop offset="0%" stop-color="#61DB99" stop-opacity="0"/><stop offset="100%" stop-color="#009E74"/></linearGradient><linearGradient id="i" x1="49.991%" x2="49.991%" y1="26.963%" y2="113.722%"><stop offset="0%" stop-color="#FFF"/><stop offset="100%" stop-color="#E2EDF2"/></linearGradient><linearGradient id="j" x1="133.81%" x2="-6.966%" y1="140.69%" y2="17.015%"><stop offset="0%" stop-color="#61DB99" stop-opacity="0"/><stop offset="100%" stop-color="#009E74"/></linearGradient><linearGradient id="k" x1="49.994%" x2="49.994%" y1="26.957%" y2="113.707%"><stop offset="0%" stop-color="#FFF"/><stop offset="100%" stop-color="#E2EDF2"/></linearGradient><linearGradient id="l" x1="94.445%" x2="-1.621%" y1="90.416%" y2="25.534%"><stop offset="0%" stop-color="#F2F2F2"/><stop offset="100%" stop-color="#C3C3C3"/></linearGradient><linearGradient id="m" x1="56.06%" x2="97.822%" y1="56.063%" y2="97.825%"><stop offset="0%" stop-color="#5A79FF"/><stop offset="100%" stop-color="#496CFF"/></linearGradient><linearGradient id="n" x1="82.998%" x2="31.454%" y1="81.666%" y2="24.374%"><stop offset="0%" stop-color="#2D50E2"/><stop offset="100%" stop-color="#3B61FF"/></linearGradient><linearGradient id="o" x1="63.759%" x2="43.315%" y1="71.987%" y2="42.249%"><stop offset="0%" stop-color="#BE3F45" stop-opacity="0"/><stop offset="100%" stop-color="#BE3F45"/></linearGradient><linearGradient id="p" x1="49.995%" x2="49.995%" y1="26.95%" y2="113.704%"><stop offset="0%" stop-color="#FFF"/><stop offset="100%" stop-color="#E2EDF2"/></linearGradient><linearGradient id="q" x1="89.492%" x2="63.62%" y1="86.151%" y2="68.132%"><stop offset="0%" stop-color="#5A7AFF"/><stop offset="100%" stop-color="#0734F2"/></linearGradient><linearGradient id="r" x1="49.997%" x2="49.997%" y1="26.953%" y2="113.707%"><stop offset="0%" stop-color="#FFF"/><stop offset="100%" stop-color="#E2EDF2"/></linearGradient><linearGradient id="s" x1="75.378%" x2=".248%" y1="69.596%" y2="23.947%"><stop offset="0%" stop-color="#F2F2F2"/><stop offset="100%" stop-color="#C3C3C3"/></linearGradient><linearGradient id="t" x1="37.101%" x2="58.452%" y1="44.06%" y2="64.592%"><stop offset="0%" stop-color="#8BE9B9"/><stop offset="100%" stop-color="#62DA9A"/></linearGradient><linearGradient id="u" x1="37.101%" x2="58.452%" y1="44.06%" y2="64.592%"><stop offset="0%" stop-color="#62DA9A"/><stop offset="100%" stop-color="#8BE9B9"/></linearGradient><linearGradient id="v" x1="37.101%" x2="58.452%" y1="44.06%" y2="64.591%"><stop offset="0%" stop-color="#8BE9B9"/><stop offset="100%" stop-color="#62DA9A"/></linearGradient></defs><g fill="none" fill-rule="evenodd"><circle cx="25.462" cy="25.537" r="25.462" fill="url(#a)"/><path fill="url(#b)" d="M50.805 27.992a25.298 25.298 0 01-5.77 13.83 25.393 25.393 0 01-4.259 4.055l-17.58-17.58-4.423-4.423a9.855 9.855 0 01-3.188-7.268c0-5.455 4.422-9.878 9.878-9.878a9.862 9.862 0 017.268 3.188l18.074 18.076z"/><path fill="url(#c)" d="M45.036 41.822a25.438 25.438 0 01-4.26 4.055 25.322 25.322 0 01-17.453 5.031l-11.71-11.693a14.198 14.198 0 0111.583-10.917c.74-.118 1.496-.18 2.266-.18 3.919 0 7.465 1.59 10.032 4.156l9.542 9.549z"/><circle cx="25.462" cy="16.605" r="9.878" fill="url(#d)"/><path fill="url(#e)" d="M39.311 39.215a19.393 19.393 0 01-13.849 5.788 19.397 19.397 0 01-13.85-5.788c1.41-6.351 7.074-11.098 13.85-11.098 3.919 0 7.465 1.59 10.032 4.156a14.136 14.136 0 013.817 6.942z"/><circle cx="84.538" cy="25.537" r="25.462" fill="url(#f)"/><path fill="url(#g)" d="M109.88 27.992a25.29 25.29 0 01-5.77 13.83 25.387 25.387 0 01-4.258 4.055L82.27 28.297l-4.423-4.423a9.859 9.859 0 01-3.188-7.268c0-5.455 4.422-9.878 9.878-9.878a9.862 9.862 0 017.268 3.188l18.075 18.076z"/><path fill="url(#h)" d="M104.111 41.822a25.4 25.4 0 01-4.26 4.055 25.316 25.316 0 01-17.452 5.031l-11.71-11.693c1.25-5.628 5.84-9.995 11.583-10.917.74-.118 1.496-.18 2.267-.18 3.919 0 7.465 1.59 10.031 4.156l9.542 9.549z"/><circle cx="84.538" cy="16.605" r="9.878" fill="url(#i)"/><path fill="url(#j)" d="M84.538 50.999c5.66 0 10.886-1.848 15.114-4.97L78.237 24.613a32.265 32.265 0 00-17.04-9.261 25.353 25.353 0 00-2.121 10.184c0 14.062 11.4 25.462 25.462 25.462z"/><path fill="url(#k)" d="M98.387 39.215a19.394 19.394 0 01-13.85 5.788 19.393 19.393 0 01-13.848-5.788c1.41-6.351 7.073-11.098 13.849-11.098 3.918 0 7.465 1.59 10.031 4.156a14.13 14.13 0 013.818 6.942z"/><path fill="url(#l)" d="M95.35 41.726L81.972 28.349a14.198 14.198 0 00-11.284 10.866 19.393 19.393 0 0013.849 5.788c4 0 7.719-1.207 10.811-3.277z"/><circle cx="55" cy="47.082" r="32.325" fill="url(#m)"/><path fill="url(#n)" d="M87.173 50.198a32.123 32.123 0 01-7.324 17.558 32.306 32.306 0 01-5.408 5.148L52.123 50.586l-5.615-5.615a12.517 12.517 0 01-4.048-9.227c0-6.926 5.615-12.54 12.54-12.54 3.648 0 6.935 1.56 9.227 4.048l22.946 22.946z"/><path fill="url(#o)" d="M79.849 67.756a32.306 32.306 0 01-5.408 5.148 32.147 32.147 0 01-19.44 6.502c-.915 0-1.82-.037-2.717-.116L37.418 64.445c1.586-7.144 7.414-12.69 14.705-13.86A18.22 18.22 0 0155 50.357c4.975 0 9.477 2.018 12.736 5.276l12.113 12.123z"/><circle cx="55" cy="35.745" r="12.54" fill="url(#p)"/><path fill="url(#q)" d="M43.111 77.149A32.246 32.246 0 0055 79.406c9.446 0 17.944-4.052 23.854-10.512L71.83 61.87a3.789 3.789 0 00-2.383-1.31l-3.17-.461-8.347-8.328c-1.715-2.028-5.122-1.761-6.389.805l-2.498 5.062a3.857 3.857 0 01-2.904 2.11l-5.586.812c-3.164.46-4.427 4.347-2.137 6.578l.29.284c.051.055.102.11.156.163l.291.283c.05.055.101.11.156.164l.29.283c.051.055.102.11.157.163l.29.284c.05.055.102.11.156.163l.291.283c.05.055.101.11.156.164l.29.283c.051.055.102.11.157.163l.29.284c.051.055.102.11.156.163l.29.283c.052.055.102.11.157.164l.29.283c.051.055.102.11.157.163l.29.284c.051.055.102.11.156.163l.076.074c.552.816.778 1.822.608 2.813l-.455 2.657z"/><path fill="url(#r)" d="M72.582 64.446A24.624 24.624 0 0155 71.795c-6.88 0-13.104-2.81-17.582-7.35 1.79-8.062 8.98-14.088 17.582-14.088 4.974 0 9.477 2.018 12.735 5.276a17.946 17.946 0 014.847 8.813z"/><path fill="url(#s)" d="M69.447 60.56l-3.17-.46-8.347-8.329c-1.715-2.028-5.122-1.76-6.389.805l-2.498 5.062a3.855 3.855 0 01-2.904 2.11l-5.586.812c-.97.14-1.761.605-2.326 1.245a17.81 17.81 0 00-.809 2.64A24.617 24.617 0 0055 71.795c6.88 0 13.104-2.81 17.582-7.35-.2-.904-.471-1.782-.802-2.63a3.79 3.79 0 00-2.333-1.255z"/><path fill="url(#t)" d="M58.459 52.576l2.498 5.062a3.855 3.855 0 002.904 2.11l5.586.812c3.164.46 4.427 4.347 2.138 6.578l-4.042 3.94a3.859 3.859 0 00-1.11 3.415l.954 5.563c.54 3.15-2.766 5.553-5.596 4.066l-4.996-2.627a3.862 3.862 0 00-3.59 0l-4.996 2.627c-2.83 1.487-6.137-.915-5.596-4.066l.954-5.563a3.856 3.856 0 00-1.11-3.414l-4.042-3.94c-2.289-2.232-1.026-6.12 2.138-6.58l5.586-.811a3.855 3.855 0 002.904-2.11l2.498-5.062c1.415-2.867 5.503-2.867 6.918 0z"/><path fill="url(#u)" d="M57.252 57.785l1.626 3.295a2.511 2.511 0 001.89 1.374l3.637.528c2.06.3 2.881 2.83 1.391 4.283l-2.631 2.565a2.507 2.507 0 00-.722 2.222l.62 3.622c.352 2.05-1.8 3.615-3.642 2.646l-3.253-1.71a2.512 2.512 0 00-2.336 0l-3.253 1.71c-1.842.969-3.995-.596-3.643-2.646l.621-3.622a2.507 2.507 0 00-.722-2.222l-2.631-2.565c-1.49-1.453-.668-3.984 1.391-4.283l3.637-.528a2.514 2.514 0 001.89-1.374l1.626-3.295c.921-1.866 3.583-1.866 4.504 0z"/><path fill="url(#v)" d="M56.719 60.084l1.24 2.515c.28.566.82.958 1.444 1.049l2.775.403c1.572.229 2.2 2.16 1.062 3.269l-2.008 1.958a1.914 1.914 0 00-.551 1.696l.474 2.765c.268 1.565-1.375 2.76-2.78 2.02l-2.484-1.305a1.912 1.912 0 00-1.783 0l-2.483 1.305c-1.406.74-3.049-.455-2.78-2.02l.473-2.765a1.92 1.92 0 00-.55-1.696l-2.01-1.958c-1.137-1.109-.51-3.04 1.063-3.269l2.775-.403a1.917 1.917 0 001.443-1.049l1.241-2.515c.704-1.424 2.736-1.424 3.439 0z"/></g></svg>