<svg xmlns="http://www.w3.org/2000/svg" width="58" height="45"><defs><linearGradient id="a" x1="17.944%" x2="73.478%" y1="-.41%" y2="86.928%"><stop offset="0%" stop-color="#62E1FB"/><stop offset="100%" stop-color="#00A2F3"/></linearGradient><linearGradient id="b" x1="82.996%" x2="31.455%" y1="81.671%" y2="24.375%"><stop offset="0%" stop-color="#00A2F3" stop-opacity="0"/><stop offset="100%" stop-color="#0075CD"/></linearGradient><linearGradient id="c" x1="63.756%" x2="43.318%" y1="71.989%" y2="42.251%"><stop offset="0%" stop-color="#00A2F3" stop-opacity="0"/><stop offset="100%" stop-color="#0075CD"/></linearGradient><linearGradient id="d" x1="49.997%" x2="49.997%" y1="26.963%" y2="113.722%"><stop offset="0%" stop-color="#FFF"/><stop offset="100%" stop-color="#E2EDF2"/></linearGradient><linearGradient id="e" x1="49.998%" x2="49.998%" y1="26.957%" y2="113.707%"><stop offset="0%" stop-color="#FFF"/><stop offset="100%" stop-color="#E2EDF2"/></linearGradient><linearGradient id="f" x1="17.94%" x2="73.474%" y1="-.412%" y2="86.926%"><stop offset="0%" stop-color="#A7F3CE"/><stop offset="100%" stop-color="#61DB99"/></linearGradient><linearGradient id="g" x1="82.994%" x2="31.453%" y1="81.672%" y2="24.377%"><stop offset="0%" stop-color="#61DB99" stop-opacity="0"/><stop offset="100%" stop-color="#009E74"/></linearGradient><linearGradient id="h" x1="63.752%" x2="43.315%" y1="71.989%" y2="42.251%"><stop offset="0%" stop-color="#61DB99" stop-opacity="0"/><stop offset="100%" stop-color="#009E74"/></linearGradient><linearGradient id="i" x1="49.991%" x2="49.991%" y1="26.963%" y2="113.722%"><stop offset="0%" stop-color="#FFF"/><stop offset="100%" stop-color="#E2EDF2"/></linearGradient><linearGradient id="j" x1="133.81%" x2="-6.966%" y1="140.69%" y2="17.015%"><stop offset="0%" stop-color="#61DB99" stop-opacity="0"/><stop offset="100%" stop-color="#009E74"/></linearGradient><linearGradient id="k" x1="49.994%" x2="49.994%" y1="26.957%" y2="113.707%"><stop offset="0%" stop-color="#FFF"/><stop offset="100%" stop-color="#E2EDF2"/></linearGradient><linearGradient id="l" x1="94.445%" x2="-1.621%" y1="90.416%" y2="25.534%"><stop offset="0%" stop-color="#F2F2F2"/><stop offset="100%" stop-color="#C3C3C3"/></linearGradient><linearGradient id="m" x1="56.06%" x2="97.822%" y1="56.063%" y2="97.825%"><stop offset="0%" stop-color="#FF4C54"/><stop offset="100%" stop-color="#BE3F45"/></linearGradient><linearGradient id="n" x1="82.998%" x2="31.454%" y1="81.666%" y2="24.374%"><stop offset="0%" stop-color="#BE3F45" stop-opacity="0"/><stop offset="100%" stop-color="#BE3F45"/></linearGradient><linearGradient id="o" x1="63.759%" x2="43.315%" y1="71.987%" y2="42.249%"><stop offset="0%" stop-color="#BE3F45" stop-opacity="0"/><stop offset="100%" stop-color="#BE3F45"/></linearGradient><linearGradient id="p" x1="49.995%" x2="49.995%" y1="26.95%" y2="113.704%"><stop offset="0%" stop-color="#FFF"/><stop offset="100%" stop-color="#E2EDF2"/></linearGradient><linearGradient id="q" x1="89.492%" x2="63.62%" y1="86.151%" y2="68.132%"><stop offset="0%" stop-color="#BE3F45" stop-opacity="0"/><stop offset="100%" stop-color="#BE3F45"/></linearGradient><linearGradient id="r" x1="49.997%" x2="49.997%" y1="26.953%" y2="113.707%"><stop offset="0%" stop-color="#FFF"/><stop offset="100%" stop-color="#E2EDF2"/></linearGradient><linearGradient id="s" x1="75.378%" x2=".248%" y1="69.596%" y2="23.947%"><stop offset="0%" stop-color="#F2F2F2"/><stop offset="100%" stop-color="#C3C3C3"/></linearGradient><linearGradient id="t" x1="36.669%" x2="58.452%" y1="43.644%" y2="64.592%"><stop offset="0%" stop-color="#FFF465"/><stop offset="100%" stop-color="#FFE600"/></linearGradient><linearGradient id="u" x1="96.988%" x2="12%" y1="101.659%" y2="19.917%"><stop offset="0%" stop-color="#FFF465"/><stop offset="100%" stop-color="#FFE600"/></linearGradient><linearGradient id="v" x1="35.498%" x2="82.378%" y1="42.522%" y2="87.605%"><stop offset="0%" stop-color="#FFF465"/><stop offset="100%" stop-color="#FFE600"/></linearGradient></defs><g fill="none" fill-rule="evenodd"><circle cx="13.425" cy="13.465" r="13.425" fill="url(#a)"/><path fill="url(#b)" d="M26.788 14.76a13.342 13.342 0 01-3.042 7.292A13.413 13.413 0 0121.5 24.19l-9.27-9.27-2.33-2.332a5.21 5.21 0 117.359-7.359l9.53 9.53z"/><path fill="url(#c)" d="M23.746 22.052A13.413 13.413 0 0121.5 24.19a13.356 13.356 0 01-9.202 2.652l-6.175-6.165a7.49 7.49 0 017.303-5.852c2.066 0 3.936.838 5.289 2.192l5.031 5.035z"/><circle cx="13.425" cy="8.756" r="5.208" fill="url(#d)"/><path fill="url(#e)" d="M20.728 20.677a10.226 10.226 0 01-7.302 3.052 10.227 10.227 0 01-7.303-3.052 7.482 7.482 0 0114.605 0z"/><circle cx="44.575" cy="13.465" r="13.425" fill="url(#f)"/><path fill="url(#g)" d="M57.937 14.76a13.342 13.342 0 01-3.042 7.292 13.452 13.452 0 01-2.246 2.138l-9.27-9.27-2.332-2.332a5.209 5.209 0 117.36-7.359l9.53 9.53z"/><path fill="url(#h)" d="M54.895 22.052a13.413 13.413 0 01-2.246 2.138 13.356 13.356 0 01-9.202 2.652l-6.175-6.165a7.49 7.49 0 017.303-5.852c2.066 0 3.936.838 5.289 2.192l5.031 5.035z"/><circle cx="44.575" cy="8.756" r="5.208" fill="url(#i)"/><path fill="url(#j)" d="M44.574 26.89c2.985 0 5.74-.974 7.97-2.62L41.253 12.977a17.02 17.02 0 00-8.986-4.883 13.371 13.371 0 00-1.118 5.37c0 7.414 6.01 13.425 13.425 13.425z"/><path fill="url(#k)" d="M51.877 20.677a10.227 10.227 0 01-7.303 3.052 10.226 10.226 0 01-7.302-3.052 7.482 7.482 0 0114.605 0z"/><path fill="url(#l)" d="M50.275 22l-7.053-7.052a7.487 7.487 0 00-5.95 5.729 10.227 10.227 0 007.303 3.052c2.109 0 4.07-.637 5.7-1.728z"/><circle cx="29" cy="24.825" r="17.044" fill="url(#m)"/><path fill="url(#n)" d="M45.964 26.468a16.937 16.937 0 01-3.862 9.258 17 17 0 01-2.851 2.714L27.483 26.672l-2.96-2.96a6.612 6.612 0 119.342-9.343l12.1 12.1z"/><path fill="url(#o)" d="M42.102 35.726a17 17 0 01-2.851 2.714 16.95 16.95 0 01-11.683 3.367L19.73 33.98a9.506 9.506 0 017.753-7.308 9.614 9.614 0 011.517-.12 9.467 9.467 0 016.715 2.782l6.387 6.392z"/><circle cx="29" cy="18.848" r="6.612" fill="url(#p)"/><path fill="url(#q)" d="M22.731 40.679c1.94.767 4.055 1.19 6.269 1.19 4.98 0 9.461-2.137 12.578-5.543l-3.704-3.704a1.994 1.994 0 00-1.257-.69l-1.671-.243-4.401-4.392c-.905-1.069-2.7-.928-3.369.425l-1.317 2.669a2.033 2.033 0 01-1.531 1.112l-2.945.428c-1.669.243-2.335 2.293-1.128 3.47l.154.149c.026.029.053.058.082.086l.153.15c.027.028.054.057.083.085l.153.15c.027.029.053.058.082.086l.153.15c.027.028.054.057.083.085l.153.15c.027.029.053.058.082.086l.153.15c.027.028.054.057.083.085l.153.15c.027.029.053.058.082.086l.153.15c.027.028.054.057.083.085l.153.15c.027.029.053.058.082.086l.154.15c.026.028.053.057.082.085l.04.04c.29.43.41.96.32 1.482l-.24 1.402z"/><path fill="url(#r)" d="M38.27 33.98c-2.36 2.394-5.643 3.875-9.27 3.875s-6.91-1.481-9.27-3.875a9.497 9.497 0 0115.985-4.646 9.457 9.457 0 012.555 4.646z"/><path fill="url(#s)" d="M36.617 31.931l-1.671-.242-4.401-4.391c-.905-1.07-2.7-.929-3.369.424l-1.317 2.67a2.035 2.035 0 01-1.531 1.112l-2.945.427c-.512.075-.93.32-1.227.657-.176.449-.32.913-.426 1.392 2.36 2.394 5.643 3.875 9.27 3.875s6.91-1.481 9.27-3.875a9.375 9.375 0 00-.422-1.386 2.002 2.002 0 00-1.23-.663z"/><path fill="url(#t)" d="M30.824 27.722l1.317 2.67c.296.6.869 1.015 1.531 1.112l2.945.427c1.669.243 2.335 2.293 1.128 3.47l-2.132 2.077a2.034 2.034 0 00-.585 1.8l.504 2.933c.284 1.662-1.46 2.929-2.951 2.144l-2.635-1.385a2.035 2.035 0 00-1.892 0l-2.635 1.385c-1.492.785-3.236-.482-2.95-2.144l.503-2.933a2.034 2.034 0 00-.585-1.8L20.255 35.4c-1.207-1.176-.54-3.226 1.128-3.469l2.945-.427a2.036 2.036 0 001.531-1.113l1.317-2.669c.746-1.512 2.902-1.512 3.648 0z"/><path fill="url(#u)" d="M30.187 30.468l.858 1.738c.193.39.565.661.996.724l1.918.279c1.086.157 1.52 1.492.733 2.258l-1.387 1.352a1.323 1.323 0 00-.38 1.172l.327 1.91c.185 1.081-.95 1.906-1.921 1.395l-1.715-.901a1.322 1.322 0 00-1.232 0l-1.715.901c-.971.51-2.106-.314-1.92-1.395l.327-1.91a1.326 1.326 0 00-.381-1.172l-1.387-1.352c-.786-.766-.353-2.1.733-2.258l1.918-.279c.43-.063.803-.333.996-.724l.858-1.738c.485-.983 1.889-.983 2.374 0z"/><path fill="url(#v)" d="M29.906 31.68l.655 1.327c.147.298.431.505.76.553l1.464.212a1.01 1.01 0 01.56 1.724l-1.06 1.032a1.015 1.015 0 00-.29.895l.25 1.457a1.01 1.01 0 01-1.466 1.066l-1.309-.688a1.008 1.008 0 00-.94 0l-1.31.688a1.01 1.01 0 01-1.466-1.066l.25-1.457a1.012 1.012 0 00-.29-.895l-1.06-1.032a1.011 1.011 0 01.56-1.724l1.464-.212c.329-.048.614-.255.76-.553l.655-1.326a1.011 1.011 0 011.813 0z"/></g></svg>