<svg xmlns="http://www.w3.org/2000/svg" width="48" height="53"><defs><linearGradient id="a" x1="35.101%" x2="106.74%" y1="27.594%" y2="105.804%"><stop offset="0%" stop-color="#62E1FB"/><stop offset="100%" stop-color="#00A2F3"/></linearGradient><linearGradient id="b" x1="82.381%" x2="-32.524%" y1="50.001%" y2="50.001%"><stop offset="0%" stop-color="#00A2F3" stop-opacity="0"/><stop offset="100%" stop-color="#0075CD"/></linearGradient><linearGradient id="c" x1="33.778%" x2="78.21%" y1="26.149%" y2="74.658%"><stop offset="0%" stop-color="#A7F3CE"/><stop offset="100%" stop-color="#61DB99"/></linearGradient><linearGradient id="d" x1="84.062%" x2="-46.21%" y1="50.001%" y2="50.001%"><stop offset="0%" stop-color="#61DB99" stop-opacity="0"/><stop offset="100%" stop-color="#009E74"/></linearGradient><linearGradient id="e" x1="77.947%" x2="44.956%" y1="61.114%" y2="30.432%"><stop offset="0%" stop-color="#61DB99" stop-opacity="0"/><stop offset="100%" stop-color="#009E74"/></linearGradient><linearGradient id="f" x1="49.997%" x2="49.997%" y1="31.776%" y2="111.921%"><stop offset="0%" stop-color="#FFF465"/><stop offset="100%" stop-color="#FFE600"/></linearGradient></defs><g fill="none" fill-rule="evenodd"><path fill="url(#a)" d="M47.943 12.626a2.351 2.351 0 00-2.055-2.294C35.18 8.948 27.747 2.914 25.084.427a1.588 1.588 0 00-2.168 0c-2.663 2.487-10.097 8.52-20.804 9.905a2.351 2.351 0 00-2.055 2.294C-.048 20.286 1.273 46.608 24 52.289c22.727-5.681 24.049-32.004 23.943-39.663z"/><path fill="url(#b)" d="M27.235 51.292a33.218 33.218 0 001.076-.422l.39-.166c.202-.087.403-.177.602-.269l.223-.104a29.35 29.35 0 002.032-1.063 25.1 25.1 0 00.797-.48l.018-.01a26.74 26.74 0 001.444-.972l.106-.076c.34-.247.671-.502.995-.761l.097-.078a26.975 26.975 0 001.035-.881l.163-.149c.057-.051.114-.102.17-.155.167-.154.33-.311.493-.469l.153-.15c.176-.173.348-.35.519-.527l.104-.107c.2-.211.396-.425.59-.641l.008-.01a27.99 27.99 0 001.127-1.342c.267-.34.526-.683.778-1.03l.008-.012c.06-.081.117-.163.175-.245l.076-.107.121-.175.125-.181a34.497 34.497 0 00.931-1.447c.213-.352.419-.707.618-1.064l.026-.045.13-.24.074-.133c.125-.23.246-.46.364-.692l.031-.06.142-.282.049-.096.076-.156c.16-.328.316-.656.467-.986a42.528 42.528 0 00.965-2.31c.186-.485.362-.971.528-1.457l.032-.09.093-.28.036-.108c.118-.356.23-.712.338-1.067l.029-.093.166-.564c.06-.21.12-.419.176-.628a49.916 49.916 0 00.384-1.49c.02-.081.04-.162.058-.244l.032-.134c.052-.222.102-.443.15-.663l.021-.09.117-.55.063-.307c.041-.206.082-.41.12-.614l.003-.015c.037-.19.071-.38.105-.568.032-.176.063-.35.092-.524.035-.202.067-.403.1-.602l.017-.114.016-.1.04-.254c.03-.206.06-.41.088-.612l.013-.088.03-.225.017-.12.013-.101a63.127 63.127 0 00.307-2.826l.002-.027.037-.456.017-.226c.026-.348.049-.687.068-1.017l.02-.372c.014-.255.025-.504.035-.747l.008-.212c.015-.38.025-.745.031-1.09v-.02c.008-.386.012-.749.012-1.086v-.02c0-.275-.002-.533-.005-.772a2.352 2.352 0 00-2.055-2.295 30.58 30.58 0 01-.888-.128l-.195-.03a31.31 31.31 0 01-.85-.148l-.126-.024c-.256-.049-.509-.1-.76-.154l-.162-.034c-.274-.06-.545-.123-.814-.188l-.169-.042a39.847 39.847 0 01-.739-.191l-.095-.026a31.192 31.192 0 01-.786-.226l-.176-.053c-.26-.079-.518-.16-.772-.243l-.042-.014a32.58 32.58 0 01-.726-.249l-.163-.057a40.575 40.575 0 01-.724-.268l-.121-.047a34.22 34.22 0 01-.641-.254l-.126-.05c-.232-.096-.46-.193-.686-.291l-.148-.065a33.54 33.54 0 01-.633-.284l-.057-.026a40.13 40.13 0 01-.656-.312l-.146-.071c-.214-.105-.425-.21-.633-.317l-.061-.032c-.194-.1-.385-.201-.574-.302l-.127-.069a39.704 39.704 0 01-.587-.323l-.108-.062a34.883 34.883 0 01-.514-.296l-.09-.053c-.186-.11-.369-.22-.548-.33L31.124 5c-.176-.109-.35-.217-.52-.326l-.017-.01-.515-.335-.113-.075a66.62 66.62 0 01-.483-.326l-.063-.043-.424-.296-.092-.065a39.07 39.07 0 01-.437-.316l-.087-.064c-.13-.095-.257-.19-.38-.283l-.057-.043c-.136-.102-.267-.204-.396-.304l-.088-.068c-.128-.1-.255-.2-.376-.298l-.008-.006-.35-.285-.077-.063-.324-.271-.05-.042-.274-.236-.055-.047c-.097-.084-.189-.166-.278-.245l-.056-.05-.237-.213-.027-.025-.233-.215-.024-.022A1.573 1.573 0 0024 0v52.29a31.6 31.6 0 003.235-.998z"/><path fill="url(#c)" d="M45.103 14.229a2.07 2.07 0 00-1.81-2.022c-9.438-1.22-15.99-6.538-18.337-8.73a1.4 1.4 0 00-1.911 0c-2.347 2.192-8.9 7.51-18.337 8.73a2.07 2.07 0 00-1.81 2.022C2.802 20.98 3.967 44.18 24 49.189c20.032-5.008 21.197-28.209 21.103-34.96z"/><path fill="#FFF" fill-rule="nonzero" d="M24 47.414l-.236-.06c-4.25-1.062-7.884-3.11-10.802-6.09-2.423-2.472-4.37-5.602-5.787-9.303-2.462-6.431-2.753-12.978-2.707-16.308a2.81 2.81 0 012.441-2.73c8.002-1.035 13.565-5.536 15.586-7.424a2.212 2.212 0 013.01 0c2.02 1.888 7.584 6.39 15.585 7.423a2.811 2.811 0 012.442 2.73c.087 6.284-1.048 27.14-19.296 31.703l-.236.059zm0-40.56a.258.258 0 00-.176.068c-2.158 2.016-8.102 6.825-16.665 7.931a.854.854 0 00-.744.826C6.334 21.573 7.367 41.066 24 45.405c16.633-4.339 17.666-23.832 17.585-29.726a.854.854 0 00-.744-.826c-8.562-1.106-14.507-5.915-16.665-7.93a.256.256 0 00-.176-.07z"/><path fill="url(#d)" d="M45.103 14.229a2.07 2.07 0 00-1.81-2.022c-9.438-1.22-15.99-6.538-18.337-8.73A1.4 1.4 0 0024 3.1v46.09c20.032-5.009 21.197-28.21 21.103-34.961z"/><path fill="url(#e)" d="M46.25 27.689c-1.685 6.81-4.987 14.218-11.384 19.32l-19.82-19.82a1.857 1.857 0 112.626-2.627l3.987 3.987c.491.49 1.291.49 1.78 0l10.523-10.521a1.855 1.855 0 012.626 0h.001l9.66 9.66z"/><path fill="url(#f)" d="M36.59 18.028a1.858 1.858 0 010 2.627L26.066 31.176a4.978 4.978 0 01-7.034 0l-3.988-3.987a1.858 1.858 0 012.627-2.627l3.987 3.986a1.26 1.26 0 001.78 0l10.523-10.52a1.855 1.855 0 012.626 0h.001z"/></g></svg>