<svg xmlns="http://www.w3.org/2000/svg" width="50" height="50"><defs><linearGradient id="a" x1="64.72%" x2="141.246%" y1="59.017%" y2="105.797%"><stop offset="0%" stop-color="#C3C3C3"/><stop offset="100%" stop-color="#777"/></linearGradient><linearGradient id="b" x1="1.672%" x2="101.67%" y1="49.49%" y2="52.484%"><stop offset="0%" stop-color="#C3C3C3"/><stop offset="100%" stop-color="#777"/></linearGradient><linearGradient id="c" x1="68.884%" x2="21.796%" y1="72.399%" y2="18.764%"><stop offset="0%" stop-color="#C3C3C3" stop-opacity="0"/><stop offset="26.7%" stop-color="#A4A4A4" stop-opacity=".267"/><stop offset="54.2%" stop-color="#8B8B8B" stop-opacity=".542"/><stop offset="79.4%" stop-color="#7C7C7C" stop-opacity=".794"/><stop offset="100%" stop-color="#777"/></linearGradient><linearGradient id="d" x1="75.241%" x2="24.868%" y1="24.743%" y2="75.17%"><stop offset="0%" stop-color="#62E1FB"/><stop offset="100%" stop-color="#00A2F3"/></linearGradient><linearGradient id="e" x1="18.575%" x2="80.154%" y1="25.554%" y2="73.465%"><stop offset="0%" stop-color="#777"/><stop offset="100%" stop-color="#3B4041"/></linearGradient><linearGradient id="f" x1="54.941%" x2="45.277%" y1="89.615%" y2="12.204%"><stop offset="0%" stop-color="#777"/><stop offset="100%" stop-color="#3B4041"/></linearGradient><linearGradient id="g" x1="18.619%" x2="80.179%" y1="25.592%" y2="73.496%"><stop offset="0%" stop-color="#C3C3C3"/><stop offset="100%" stop-color="#777"/></linearGradient><linearGradient id="h" x1="18.575%" x2="80.146%" y1="25.558%" y2="73.461%"><stop offset="0%" stop-color="#777"/><stop offset="100%" stop-color="#3B4041"/></linearGradient><linearGradient id="i" x1="54.935%" x2="45.271%" y1="89.618%" y2="12.206%"><stop offset="0%" stop-color="#777"/><stop offset="100%" stop-color="#3B4041"/></linearGradient><linearGradient id="j" x1="18.609%" x2="80.17%" y1="25.594%" y2="73.498%"><stop offset="0%" stop-color="#C3C3C3"/><stop offset="100%" stop-color="#777"/></linearGradient><linearGradient id="k" x1="43.743%" x2="37.43%" y1="51.236%" y2="71.43%"><stop offset="0%" stop-color="#FF4C54"/><stop offset="100%" stop-color="#BE3F45"/></linearGradient><linearGradient id="l" x1="49.358%" x2="56.217%" y1="42.686%" y2="120.91%"><stop offset="0%" stop-color="#FF4C54"/><stop offset="100%" stop-color="#BE3F45"/></linearGradient><linearGradient id="m" x1="49.701%" x2="52.901%" y1="42.685%" y2="120.91%"><stop offset="0%" stop-color="#FF4C54"/><stop offset="100%" stop-color="#BE3F45"/></linearGradient><linearGradient id="n" x1="49.826%" x2="52.415%" y1="44.723%" y2="122.95%"><stop offset="0%" stop-color="#FF4C54"/><stop offset="100%" stop-color="#BE3F45"/></linearGradient><linearGradient id="o" x1="49.864%" x2="51.883%" y1="44.724%" y2="122.951%"><stop offset="0%" stop-color="#FF4C54"/><stop offset="100%" stop-color="#BE3F45"/></linearGradient><linearGradient id="p" x1="40.181%" x2="54.973%" y1="62.629%" y2="15.316%"><stop offset="0%" stop-color="#BE3F45" stop-opacity="0"/><stop offset="100%" stop-color="#BE3F45"/></linearGradient><linearGradient id="q" x1="49.998%" x2="49.998%" y1="32.075%" y2="127.153%"><stop offset="0%" stop-color="#FFB92D"/><stop offset="100%" stop-color="#F59500"/></linearGradient></defs><g fill="none" fill-rule="evenodd"><circle cx="2.309" cy="22.491" r="1.755" fill="url(#a)"/><path fill="url(#b)" d="M48.256 36.877l-33.923.027a2.447 2.447 0 01-2.447-2.442l-.022-19.178a13.832 13.832 0 00-4.086-9.842l-.836-.834c-.627-.626-1.647-.683-2.302-.086a1.645 1.645 0 00-.056 2.382l.869.867a10.558 10.558 0 013.109 7.049H2.61c-.994 0-1.838.813-1.82 1.807.018.964.805 1.74 1.774 1.74h4.84a1.175 1.175 0 01-.001 2.35H6.5a1.773 1.773 0 100 3.547h.997a1.09 1.09 0 010 2.178H6.5a1.773 1.773 0 100 3.547h2.09l.005 4.476a5.742 5.742 0 005.74 5.73l33.923-.027a1.645 1.645 0 10-.002-3.291z"/><path fill="url(#c)" d="M7.778 5.442l-.868-.867a1.646 1.646 0 00-2.326 2.329l.869.867a10.599 10.599 0 012.18 3.143l2.447-2.45a14.034 14.034 0 00-2.302-3.022z"/><path fill="url(#d)" d="M.761.794A2.604 2.604 0 014.443.791L6.54 2.885a2.602 2.602 0 01.003 3.682 2.602 2.602 0 01-3.682.003L.764 4.477A2.604 2.604 0 01.761.794z"/><circle cx="18.274" cy="42.984" r="6.303" fill="url(#e)"/><circle cx="18.274" cy="42.984" r="4.339" fill="url(#f)"/><circle cx="18.274" cy="42.984" r="2.088" fill="url(#g)"/><circle cx="39.812" cy="42.984" r="6.303" fill="url(#h)"/><circle cx="39.812" cy="42.984" r="4.339" fill="url(#i)"/><circle cx="39.812" cy="42.984" r="2.088" fill="url(#j)"/><path fill="url(#k)" d="M38.125 36.014H15.723c-.96 0-1.658-.682-1.666-1.63L13.89 15.13h34.07l-7.545 19.255c-.371.948-1.329 1.63-2.29 1.63z"/><path fill="url(#l)" d="M35.81 33.807a1.17 1.17 0 01-.187-.015c-.671-.104-1.023-.753-.786-1.448l4.02-11.8c.237-.696.973-1.175 1.644-1.07.672.103 1.024.752.787 1.447l-4.02 11.8c-.216.632-.843 1.086-1.459 1.086z"/><path fill="url(#m)" d="M18.884 33.807c-.616 0-1.069-.453-1.042-1.085l.5-11.8c.03-.696.63-1.344 1.342-1.449.71-.104 1.263.375 1.234 1.07l-.5 11.801c-.03.696-.63 1.344-1.342 1.448-.065.01-.13.015-.192.015z"/><path fill="url(#n)" d="M30.234 33.807l-.065-.002c-.691-.036-1.114-.635-.943-1.337l2.86-11.8c.17-.703.87-1.242 1.56-1.207.69.036 1.113.634.943 1.337l-2.86 11.8c-.166.68-.826 1.209-1.495 1.209z"/><path fill="url(#o)" d="M24.46 33.807c-.67 0-1.127-.529-1.032-1.209l1.661-11.8c.099-.703.75-1.301 1.455-1.337.705-.036 1.196.504 1.098 1.207l-1.661 11.8c-.099.702-.75 1.3-1.455 1.337l-.066.002z"/><path fill="url(#p)" d="M13.916 18.116l14.358 17.898h9.851c.96 0 1.919-.682 2.29-1.63L47.96 15.13H13.89l.026 2.987z"/><path fill="url(#q)" d="M47.81 18.246H14.04a1.788 1.788 0 11.001-3.577h33.768a1.788 1.788 0 110 3.577z"/></g></svg>