<svg xmlns="http://www.w3.org/2000/svg" width="93" height="102"><defs><linearGradient id="a" x1="35.101%" x2="106.74%" y1="27.594%" y2="105.804%"><stop offset="0%" stop-color="#62E1FB"/><stop offset="100%" stop-color="#00A2F3"/></linearGradient><linearGradient id="b" x1="82.381%" x2="-32.524%" y1="50.001%" y2="50.001%"><stop offset="0%" stop-color="#00A2F3" stop-opacity="0"/><stop offset="100%" stop-color="#0075CD"/></linearGradient><linearGradient id="c" x1="33.778%" x2="78.21%" y1="26.149%" y2="74.658%"><stop offset="0%" stop-color="#A7F3CE"/><stop offset="100%" stop-color="#61DB99"/></linearGradient><linearGradient id="d" x1="84.062%" x2="-46.21%" y1="50.001%" y2="50.001%"><stop offset="0%" stop-color="#61DB99" stop-opacity="0"/><stop offset="100%" stop-color="#009E74"/></linearGradient><linearGradient id="e" x1="77.947%" x2="44.956%" y1="61.114%" y2="30.432%"><stop offset="0%" stop-color="#61DB99" stop-opacity="0"/><stop offset="100%" stop-color="#009E74"/></linearGradient><linearGradient id="f" x1="49.997%" x2="49.997%" y1="31.776%" y2="111.921%"><stop offset="0%" stop-color="#FFF465"/><stop offset="100%" stop-color="#FFE600"/></linearGradient></defs><g fill="none" fill-rule="evenodd"><path fill="url(#a)" d="M92.889 24.462a4.554 4.554 0 00-3.981-4.444C68.163 17.336 53.76 5.647 48.6.828a3.077 3.077 0 00-4.2 0c-5.16 4.819-19.563 16.508-40.308 19.19a4.552 4.552 0 00-3.981 4.444c-.205 14.84 2.356 65.84 46.389 76.849 44.033-11.009 46.594-62.008 46.389-76.849z"/><path fill="url(#b)" d="M52.767 99.378a57.741 57.741 0 004.44-1.862 55.206 55.206 0 003.937-2.059 52.159 52.159 0 001.544-.93l.035-.02a52.511 52.511 0 002.798-1.883c.068-.05.137-.097.204-.146.66-.48 1.301-.973 1.93-1.476l.188-.15a55.904 55.904 0 002.005-1.709c.106-.095.21-.191.315-.287.11-.1.22-.199.329-.3.323-.3.64-.603.955-.909.1-.097.2-.192.297-.29.34-.336.675-.677 1.005-1.021.066-.07.135-.139.2-.209.39-.409.77-.823 1.144-1.241l.016-.018c.473-.53.933-1.07 1.383-1.614a57.661 57.661 0 002.308-2.983l.016-.023.34-.476.147-.208c.079-.112.156-.225.234-.338.08-.117.162-.233.243-.35.26-.384.515-.77.767-1.157a63.029 63.029 0 002.233-3.708l.05-.088c.086-.154.17-.309.254-.463.047-.087.096-.173.142-.26.241-.445.476-.892.705-1.34l.06-.116c.093-.182.185-.364.275-.547l.094-.186c.05-.1.099-.202.148-.303.311-.633.613-1.27.904-1.91a77.333 77.333 0 001.871-4.474c.36-.94.7-1.882 1.023-2.824l.06-.176c.062-.18.122-.36.182-.54l.07-.21c.228-.69.445-1.379.655-2.067l.055-.18c.11-.365.217-.73.321-1.093a99.26 99.26 0 00.821-3.03c.09-.359.18-.717.266-1.073l.112-.473.063-.261c.1-.43.197-.858.291-1.284l.04-.175c.077-.356.152-.711.225-1.065l.123-.595c.08-.398.158-.795.233-1.19l.006-.028c.07-.369.137-.736.203-1.102l.178-1.014c.067-.392.13-.78.192-1.167l.035-.22.03-.196a117.145 117.145 0 00.249-1.675l.024-.171.06-.437.031-.232c.01-.066.017-.13.026-.196a117.847 117.847 0 00.594-5.474l.005-.054c.025-.298.049-.592.071-.883l.034-.437a112.096 112.096 0 00.17-2.691c.027-.495.049-.977.068-1.448l.016-.41c.027-.739.047-1.444.06-2.114v-.036c.015-.75.022-1.452.022-2.106v-.04c0-.532-.004-1.03-.01-1.495a4.555 4.555 0 00-3.982-4.445c-.578-.075-1.15-.16-1.719-.248l-.378-.06a65.085 65.085 0 01-1.649-.285l-.243-.047a72.237 72.237 0 01-1.472-.298l-.314-.067a61.636 61.636 0 01-1.577-.364l-.327-.08c-.481-.12-.959-.244-1.431-.372l-.185-.049a67.65 67.65 0 01-1.523-.437l-.341-.104a72.994 72.994 0 01-1.496-.47l-.08-.028a66.23 66.23 0 01-1.407-.481l-.316-.112c-.473-.17-.941-.342-1.404-.519l-.234-.09a71.396 71.396 0 01-1.242-.493l-.243-.098c-.45-.185-.893-.373-1.33-.563l-.286-.125a82.205 82.205 0 01-1.227-.551l-.11-.05c-.43-.2-.853-.402-1.271-.605l-.284-.138a82.37 82.37 0 01-1.226-.614l-.118-.062a87.44 87.44 0 01-1.111-.585l-.247-.133a74.47 74.47 0 01-1.137-.627l-.21-.12a65.49 65.49 0 01-.996-.574l-.176-.103a72.43 72.43 0 01-1.06-.637l-.232-.143c-.341-.21-.678-.42-1.007-.63l-.034-.022c-.34-.217-.67-.433-.997-.648l-.22-.145a83.9 83.9 0 01-.935-.631l-.122-.084c-.279-.193-.552-.384-.821-.574l-.179-.126c-.288-.205-.57-.409-.847-.611l-.169-.124c-.25-.185-.497-.368-.737-.55l-.109-.081a68.25 68.25 0 01-.767-.59l-.17-.132c-.25-.195-.494-.388-.73-.577l-.014-.012c-.234-.187-.46-.371-.68-.552l-.148-.122a75.452 75.452 0 01-.629-.526l-.095-.08-.532-.457-.107-.093a93.73 93.73 0 01-.538-.473l-.109-.098a60.269 60.269 0 01-.457-.412l-.054-.048a59.44 59.44 0 01-.45-.416l-.047-.043A3.063 3.063 0 0046.5 0v101.31a60.842 60.842 0 006.268-1.931z"/><path fill="url(#c)" d="M87.388 27.568a4.014 4.014 0 00-3.509-3.917C65.594 21.287 52.9 10.984 48.352 6.737a2.714 2.714 0 00-3.703 0c-4.547 4.247-17.242 14.55-35.527 16.914a4.014 4.014 0 00-3.509 3.917C5.432 40.648 7.689 85.601 46.5 95.304 85.312 85.6 87.569 40.649 87.388 27.568z"/><path fill="#FFF" fill-rule="nonzero" d="M46.5 91.864l-.458-.115c-8.232-2.058-15.274-6.028-20.929-11.799-4.694-4.79-8.466-10.855-11.212-18.025-4.77-12.46-5.333-25.146-5.244-31.598.037-2.672 2.07-4.946 4.73-5.29C28.89 23.033 39.67 14.312 43.584 10.655a4.285 4.285 0 015.832 0c3.915 3.657 14.694 12.378 30.197 14.382 2.66.344 4.693 2.618 4.73 5.29.168 12.174-2.03 52.583-37.386 61.423l-.457.114zm0-78.586a.498.498 0 00-.34.134c-4.182 3.906-15.7 13.222-32.29 15.366a1.652 1.652 0 00-1.44 1.6c-.158 11.42 1.844 49.187 34.07 57.594 32.226-8.407 34.228-46.174 34.07-57.593a1.65 1.65 0 00-1.44-1.6c-16.59-2.145-28.108-11.461-32.29-15.367a.491.491 0 00-.34-.134z"/><path fill="url(#d)" d="M87.388 27.568a4.014 4.014 0 00-3.509-3.917C65.594 21.287 52.9 10.984 48.352 6.737a2.704 2.704 0 00-1.852-.73v89.297C85.312 85.6 87.57 40.649 87.388 27.568z"/><path fill="url(#e)" d="M89.609 53.647c-3.264 13.194-9.662 27.549-22.056 37.433L29.15 52.678a3.598 3.598 0 115.09-5.09l7.725 7.726c.952.95 2.5.95 3.448 0l20.388-20.386a3.598 3.598 0 015.09 0h.001L89.61 53.647z"/><path fill="url(#f)" d="M70.892 34.929a3.6 3.6 0 010 5.09L50.505 60.404c-3.758 3.758-9.873 3.758-13.629 0l-7.725-7.726a3.6 3.6 0 115.089-5.09l7.725 7.725c.95.95 2.5.95 3.448 0l20.388-20.386a3.6 3.6 0 015.09 0v.002z"/></g></svg>