<svg xmlns="http://www.w3.org/2000/svg" width="24" height="25"><path d="M23.942 17.032a2.522 2.522 0 00-.102-.42 2.665 2.665 0 00-2.954-1.724.772.772 0 01-.882-.642l-.64-4.097A8.937 8.937 0 0012.96 2.89a3.445 3.445 0 00-6.81 1.048 8.62 8.62 0 00-3.905 8.632l.686 4.36a.778.778 0 01-.642.883 2.664 2.664 0 00-2.282 2.548 2.593 2.593 0 002.566 2.62h.026a2.6 2.6 0 00.404-.032l2.66-.418a3.429 3.429 0 006.351-.999l9.77-1.537a2.592 2.592 0 002.158-2.963zM9.305 1.839a1.738 1.738 0 011.712.756h-.042a8.41 8.41 0 00-.966.027 8.969 8.969 0 00-1.007.156c-.072.015-.143.035-.214.053a8.53 8.53 0 00-.8.228c-.027.008-.053.012-.08.021a1.73 1.73 0 011.397-1.241zm-.657 20.717a1.71 1.71 0 01-1.017-.335l2.42-.38c-.326.45-.847.716-1.403.715zm13.47-4.672a.866.866 0 01-.605.404l-10.409 1.637-5.057.796-3.31.518a.866.866 0 01-1.002-.868.938.938 0 01.823-.851 2.507 2.507 0 002.08-2.857l-.685-4.36a6.93 6.93 0 013.496-7.136.334.334 0 00.044-.017 6.91 6.91 0 012.674-.807 6.23 6.23 0 01.853-.016l.142.006c.295.018.588.055.877.111h.028a7.182 7.182 0 015.586 5.971l.644 4.097a2.5 2.5 0 002.857 2.082.938.938 0 011.044.556.866.866 0 01-.08.734z" fill="currentColor" fill-rule="nonzero" opacity=".9"/></svg>