<svg xmlns="http://www.w3.org/2000/svg" xmlns:xlink="http://www.w3.org/1999/xlink" width="70" height="70"><defs><linearGradient id="o" x1="41.472%" x2="89.419%" y1="27.663%" y2="86.52%"><stop offset="0%" stop-color="#555A66" stop-opacity="0"/><stop offset="100%" stop-color="#555A66"/></linearGradient><linearGradient id="c" x1="46.436%" x2="61.687%" y1="50.001%" y2="61.474%"><stop offset="0%" stop-color="#FF7044"/><stop offset="100%" stop-color="#F92814"/></linearGradient><linearGradient id="e" x1="43.477%" x2="64.247%" y1="52.091%" y2="83.342%"><stop offset="0%" stop-color="#FF7044"/><stop offset="100%" stop-color="#F92814"/></linearGradient><linearGradient id="f" x1="54.291%" x2="45.601%" y1="55.325%" y2="43.804%"><stop offset="0%" stop-color="#F92814" stop-opacity="0"/><stop offset="100%" stop-color="#C1272D"/></linearGradient><linearGradient id="g" x1="50%" x2="50%" y1="107.135%" y2="67.296%"><stop offset="0%" stop-color="#7E8595"/><stop offset="100%" stop-color="#555A66"/></linearGradient><linearGradient id="h" x1="41.464%" x2="65.489%" y1="39.293%" y2="86.127%"><stop offset="0%" stop-color="#FFDA45"/><stop offset="100%" stop-color="#FFA425"/></linearGradient><linearGradient id="i" x1="58.536%" x2="34.51%" y1="39.293%" y2="86.127%"><stop offset="0%" stop-color="#FFDA45"/><stop offset="100%" stop-color="#FFA425"/></linearGradient><linearGradient id="j" x1="-.935%" x2="89.948%" y1="37.685%" y2="58.843%"><stop offset="0%" stop-color="#FFDAAA"/><stop offset="28.41%" stop-color="#FFD4A4"/><stop offset="67.28%" stop-color="#FDC592"/><stop offset="100%" stop-color="#FCB37E"/></linearGradient><linearGradient id="k" x1="56.231%" x2="39.871%" y1="60.632%" y2="4.948%"><stop offset="0%" stop-color="#FCB37E" stop-opacity="0"/><stop offset="100%" stop-color="#FF7044"/></linearGradient><linearGradient id="m" x1="54.723%" x2="41.248%" y1="52.404%" y2="11.766%"><stop offset="0%" stop-color="#FCB37E" stop-opacity="0"/><stop offset="100%" stop-color="#FF7044"/></linearGradient><linearGradient id="n" x1="6.24%" x2="94.43%" y1="18.304%" y2="108.16%"><stop offset="0%" stop-color="#7E8595"/><stop offset="100%" stop-color="#555A66"/></linearGradient><linearGradient id="d" x1="52.965%" x2="-5.376%" y1="52.141%" y2="39.793%"><stop offset="0%" stop-color="#FF7044" stop-opacity="0"/><stop offset="100%" stop-color="#FFA425"/></linearGradient><linearGradient id="p" x1="34.838%" x2="-35.095%" y1="41.774%" y2="-63.746%"><stop offset="0%" stop-color="#BEC3D2" stop-opacity="0"/><stop offset="55.77%" stop-color="#D4D9E4" stop-opacity=".558"/><stop offset="100%" stop-color="#E9EDF5"/></linearGradient><linearGradient id="q" x1="33.278%" x2="5.222%" y1="54.577%" y2="62.39%"><stop offset="0%" stop-color="#555A66" stop-opacity="0"/><stop offset="100%" stop-color="#555A66"/></linearGradient><linearGradient id="r" x1="31.292%" x2="96.049%" y1="31.416%" y2="95.748%"><stop offset="0%" stop-color="#7E8595"/><stop offset="100%" stop-color="#555A66"/></linearGradient><linearGradient id="s" x1="43.093%" x2="-.363%" y1="40.109%" y2="-22.122%"><stop offset="0%" stop-color="#BEC3D2" stop-opacity="0"/><stop offset="31.83%" stop-color="#C2C7D5" stop-opacity=".318"/><stop offset="60.82%" stop-color="#CDD1DE" stop-opacity=".608"/><stop offset="88.61%" stop-color="#DFE3ED" stop-opacity=".886"/><stop offset="100%" stop-color="#E9EDF5"/></linearGradient><linearGradient id="t" x1="49.048%" x2="121.6%" y1="67.328%" y2="-66.719%"><stop offset="0%" stop-color="#555A66" stop-opacity="0"/><stop offset="100%" stop-color="#555A66"/></linearGradient><linearGradient id="u" x1="31.292%" x2="96.052%" y1="31.416%" y2="95.748%"><stop offset="0%" stop-color="#7E8595"/><stop offset="100%" stop-color="#555A66"/></linearGradient><linearGradient id="v" x1="49.051%" x2="121.603%" y1="67.328%" y2="-66.719%"><stop offset="0%" stop-color="#555A66" stop-opacity="0"/><stop offset="100%" stop-color="#555A66"/></linearGradient><linearGradient id="w" x1="50.001%" x2="50.001%" y1="28.462%" y2="130.874%"><stop offset="0%" stop-color="#FCB37E" stop-opacity="0"/><stop offset="100%" stop-color="#FF7044"/></linearGradient><radialGradient id="l" cx="32.812%" cy="40.614%" r="87.581%" fx="32.812%" fy="40.614%" gradientTransform="matrix(1 0 0 .65746 0 .14)"><stop offset="0%" stop-color="#FFDAAA"/><stop offset="42.13%" stop-color="#FFD8A8"/><stop offset="65.19%" stop-color="#FED1A0"/><stop offset="83.59%" stop-color="#FDC592"/><stop offset="99.51%" stop-color="#FCB47F"/><stop offset="100%" stop-color="#FCB37E"/></radialGradient><circle id="a" cx="35" cy="35" r="35"/></defs><g fill="none" fill-rule="evenodd"><mask id="b" fill="#fff"><use xlink:href="#a"/></mask><circle cx="35" cy="35" r="34.5" stroke="#E0E0E0"/><g mask="url(#b)"><g transform="translate(12 15)"><path fill="url(#c)" d="M33.199 42.776H12.8c-4.477 0-8.107 3.618-8.107 8.08v3.753c0 .442.36.8.803.8h35.006a.802.802 0 00.803-.8v-3.753c0-4.462-3.63-8.08-8.107-8.08z"/><path fill="url(#d)" d="M33.776 43.675H14.83c-4.158 0-7.53 3.36-7.53 7.505v3.486c0 .41.335.743.746.743h32.457a.802.802 0 00.803-.8V51.18c0-4.145-3.371-7.505-7.53-7.505z"/><path fill="url(#e)" d="M33.199 42.776h-2.092c-4.478 0-8.107 3.618-8.107 8.08v4.553h17.503a.802.802 0 00.803-.8v-3.753c0-4.462-3.63-8.08-8.107-8.08z"/><path fill="url(#f)" d="M12.327 43.825v1.481c0 1.992.698 3.922 1.973 5.456.126.152.261.292.403.422l4.238 4.225h21.562a.802.802 0 00.803-.8v-3.58l-7.831-7.805c-.19-.269-.5-.447-.854-.448H13.38a1.05 1.05 0 00-1.053 1.049z"/><path fill="url(#g)" d="M36.763 13.718C36.763 6.142 30.601 0 23 0S9.237 6.142 9.237 13.718a27.66 27.66 0 01-3.528 13.517l-5.542 9.9a1.3 1.3 0 00.825 1.896l4.255 1.055a73.783 73.783 0 0035.505 0l4.256-1.055a1.3 1.3 0 00.825-1.897l-5.542-9.899a27.66 27.66 0 01-3.528-13.517z"/><path fill="url(#h)" d="M23 49.342l-3.624-6.566H13.38a1.063 1.063 0 00-1.052 1.068v1.462c0 1.992.697 3.922 1.972 5.456a4.32 4.32 0 005.928.68l2.772-2.1z"/><path fill="url(#i)" d="M23 49.342l3.624-6.566h5.996a1.063 1.063 0 011.052 1.068v1.462a8.535 8.535 0 01-1.972 5.456 4.32 4.32 0 01-5.928.68L23 49.342z"/><path fill="url(#j)" d="M26.696 37.84v-2.21h-7.392v2.212c0 2.725-2.217 4.935-4.952 4.935 0 3.626 2.95 6.566 6.588 6.566h4.12c3.638 0 6.588-2.94 6.588-6.566-2.735 0-4.952-2.21-4.952-4.935z"/><path fill="url(#k)" d="M31.648 42.776c-2.735 0-4.952-2.21-4.952-4.935v-2.212h-7.392v2.212c0 .123-.006.245-.015.366l9.797 9.764a6.543 6.543 0 002.562-5.195z"/><path fill="url(#l)" d="M23 38.803c-6.488 0-11.748-5.242-11.748-11.71V14.775c0-6.467 5.26-11.71 11.748-11.71 6.488 0 11.748 5.243 11.748 11.71v12.32c0 6.467-5.26 11.71-11.748 11.71z"/><path fill="url(#m)" d="M23 3.064c-6.488 0-11.748 5.243-11.748 11.71v5.52l17.22 17.163c3.732-1.962 6.276-5.866 6.276-10.363v-12.32c0-6.467-5.26-11.71-11.748-11.71z"/><path fill="url(#n)" d="M23 0C15.399 0 9.237 6.142 9.237 13.718c0 2.349-.3 4.678-.885 6.935a12.42 12.42 0 0011.952-9.265 18.694 18.694 0 0017.335 9.229 27.63 27.63 0 01-.876-6.9C36.763 6.143 30.601 0 23 0z"/><path fill="url(#o)" d="M37.638 20.617c-.387.023-.778.037-1.172.037h-.04a4.478 4.478 0 01-4.436-4.016 28.676 28.676 0 01-.148-2.92c0-3.788-1.477-7.217-3.864-9.7-1.913-1.988-4.41-3.37-7.2-3.838C21.501.06 22.243 0 23 0c3.801 0 7.241 1.536 9.732 4.018a13.654 13.654 0 014.031 9.7c0 2.336.298 4.653.875 6.899z"/><path fill="url(#p)" d="M23 1.503c-6.488 0-11.748 5.243-11.748 11.71v7.08c4.42-1.082 7.912-4.52 9.052-8.905a18.695 18.695 0 0014.444 9.186v-7.361c0-6.467-5.26-11.71-11.748-11.71z"/><path fill="url(#q)" d="M36.465 20.654a19 19 0 001.174-.037c-.386-1.5-.646-3.03-.777-4.578-13.123-1.008-17.678-9.792-17.678-9.792 0 2.934 1.12 5.141 1.12 5.141a18.694 18.694 0 0016.161 9.266z"/><ellipse cx="17.098" cy="22.339" fill="url(#r)" rx="2.086" ry="2.079"/><ellipse cx="17.098" cy="22.339" fill="url(#s)" rx="1.741" ry="1.735"/><path fill="url(#t)" d="M18.031 20.48a2.083 2.083 0 01-2.799 2.789 2.087 2.087 0 003.952-.93c0-.813-.47-1.518-1.153-1.859z"/><ellipse cx="28.902" cy="22.339" fill="url(#u)" rx="2.086" ry="2.079"/><ellipse cx="28.902" cy="22.339" fill="url(#s)" rx="1.741" ry="1.735"/><path fill="url(#v)" d="M29.835 20.48a2.083 2.083 0 01-2.799 2.789 2.087 2.087 0 003.952-.93c0-.813-.47-1.518-1.153-1.859z"/><path fill="url(#w)" d="M23.667 30.424h-1.334a1.797 1.797 0 01-1.79-1.985l.699-6.466h3.516l.698 6.466a1.796 1.796 0 01-1.789 1.985z"/></g></g></g></svg>