<svg xmlns="http://www.w3.org/2000/svg" width="40" height="40"><g fill="none" fill-rule="evenodd"><circle cx="20" cy="20" r="20" fill="#496CFF"/><path fill="#FFF" fill-rule="nonzero" d="M29 13.122c0-.835-.311-1.62-.874-2.21a2.878 2.878 0 00-4.207.004L11.942 23.553c-.39.41-.687.916-.86 1.465l-.012.035L10 30l4.72-1.11.035-.013a3.553 3.553 0 001.396-.904L28.13 15.334c.562-.59.87-1.376.87-2.212zM12.478 28L12 27.52l.345-1.52L14 27.659 12.478 28zm14.09-13.318L15.08 27 13 24.777l7.87-8.438 1.198 1.28 1.038-1.108-1.2-1.282 1.116-1.197 1.202 1.284 1.038-1.108-1.205-1.287.43-.46a1.406 1.406 0 012.08-.003c.28.297.433.691.433 1.111 0 .42-.152.815-.431 1.113zM17.52 28H29v2H16l1.52-2z"/></g></svg>