<svg xmlns="http://www.w3.org/2000/svg" width="10" height="17"><path d="M.293 8.85h1.988v7.498c0 .148.13.268.292.268h3.371c.162 0 .293-.12.293-.268V8.885h2.285c.15 0 .274-.102.291-.237l.347-2.76a.251.251 0 00-.072-.21.304.304 0 00-.218-.09H6.237v-1.73c0-.522.307-.786.911-.786H8.87c.161 0 .292-.12.292-.268V.27c0-.148-.13-.268-.292-.268H6.497C6.481.002 6.444 0 6.389 0c-.412 0-1.843.074-2.973 1.027C2.164 2.082 2.338 3.346 2.38 3.565v2.023H.293c-.162 0-.293.12-.293.268v2.726c0 .148.131.268.293.268z" fill="currentColor" fill-rule="evenodd"/></svg>
