<svg xmlns="http://www.w3.org/2000/svg" width="93" height="102" viewBox="0 0 93 102">
    <defs>
        <linearGradient id="q73mbksk6a" x1="35.101%" x2="106.74%" y1="27.594%" y2="105.804%">
            <stop offset="0%" stop-color="#62E1FB"/>
            <stop offset="100%" stop-color="#00A2F3"/>
        </linearGradient>
        <linearGradient id="lfot9cnonb" x1="82.381%" x2="-32.524%" y1="50.001%" y2="50.001%">
            <stop offset="0%" stop-color="#00A2F3" stop-opacity="0"/>
            <stop offset="100%" stop-color="#0075CD"/>
        </linearGradient>
        <linearGradient id="1r6o721w4c" x1="33.778%" x2="78.21%" y1="26.149%" y2="74.658%">
            <stop offset="0%" stop-color="#A7F3CE"/>
            <stop offset="100%" stop-color="#61DB99"/>
        </linearGradient>
        <linearGradient id="vi5pit6pbd" x1="84.062%" x2="-46.21%" y1="50.001%" y2="50.001%">
            <stop offset="0%" stop-color="#61DB99" stop-opacity="0"/>
            <stop offset="100%" stop-color="#009E74"/>
        </linearGradient>
        <linearGradient id="ebvbywvyxe" x1="77.947%" x2="44.956%" y1="61.114%" y2="30.432%">
            <stop offset="0%" stop-color="#61DB99" stop-opacity="0"/>
            <stop offset="100%" stop-color="#009E74"/>
        </linearGradient>
        <linearGradient id="tg3y23n8if" x1="49.997%" x2="49.997%" y1="31.776%" y2="111.921%">
            <stop offset="0%" stop-color="#FFF465"/>
            <stop offset="100%" stop-color="#FFE600"/>
        </linearGradient>
    </defs>
    <g fill="none" fill-rule="evenodd">
        <g>
            <g>
                <g>
                    <g>
                        <g>
                            <path fill="url(#q73mbksk6a)" d="M92.889 24.462c-.032-2.266-1.734-4.154-3.981-4.444C68.163 17.336 53.76 5.647 48.6.828c-1.182-1.104-3.019-1.104-4.2 0-5.16 4.819-19.563 16.508-40.308 19.19-2.248.29-3.95 2.178-3.981 4.444-.205 14.84 2.356 65.84 46.389 76.849 44.033-11.009 46.594-62.008 46.389-76.849z" transform="translate(-1200 -2595) translate(0 2526) translate(388 65) translate(812 4)"/>
                            <path fill="url(#lfot9cnonb)" d="M52.767 99.378c.309-.114.615-.23.92-.348.392-.153.78-.31 1.165-.47.253-.105.505-.212.754-.32.394-.17.784-.344 1.169-.522.145-.066.289-.134.432-.202.355-.167.707-.338 1.055-.512.505-.252 1.003-.51 1.494-.774.468-.252.932-.51 1.388-.773.523-.303 1.038-.613 1.544-.93l.035-.02c.964-.604 1.895-1.233 2.798-1.883.068-.05.137-.097.204-.146.66-.48 1.301-.973 1.93-1.476l.188-.15c.355-.288.704-.58 1.05-.875.322-.275.641-.552.955-.834.106-.095.21-.191.315-.287.11-.1.22-.199.329-.3.323-.3.64-.603.955-.909.1-.097.2-.192.297-.29.34-.336.675-.677 1.005-1.021.066-.07.135-.139.2-.209.39-.409.77-.823 1.144-1.241l.016-.018c.473-.53.933-1.07 1.383-1.614.27-.327.539-.657.801-.989.518-.656 1.02-1.321 1.507-1.994l.016-.023.34-.476.147-.208c.079-.112.156-.225.234-.338.08-.117.162-.233.243-.35.26-.384.515-.77.767-1.157.353-.545.7-1.094 1.035-1.648.413-.68.812-1.368 1.198-2.06l.05-.088c.086-.154.17-.309.254-.463.047-.087.096-.173.142-.26.241-.445.476-.892.705-1.34l.06-.116c.093-.182.185-.364.275-.547l.094-.186c.05-.1.099-.202.148-.303.311-.633.613-1.27.904-1.91.515-1.13.998-2.266 1.453-3.406.142-.356.282-.712.418-1.068.36-.94.7-1.882 1.023-2.824l.06-.176c.062-.18.122-.36.182-.54l.07-.21c.228-.69.445-1.379.655-2.067l.055-.18c.11-.365.217-.73.321-1.093.118-.406.232-.812.343-1.217.166-.606.325-1.21.478-1.813.09-.359.18-.717.266-1.073l.112-.473.063-.261c.1-.43.197-.858.291-1.284l.04-.175c.077-.356.152-.711.225-1.065l.123-.595c.08-.398.158-.795.233-1.19l.006-.028c.07-.369.137-.736.203-1.102l.178-1.014c.067-.392.13-.78.192-1.167l.035-.22.03-.196c.026-.163.052-.327.076-.49.06-.398.118-.793.173-1.185l.024-.171.06-.437.031-.232c.01-.066.017-.13.026-.196.079-.6.153-1.191.22-1.774.15-1.275.272-2.511.374-3.7l.005-.054c.025-.298.049-.592.071-.883l.034-.437c.05-.675.094-1.332.13-1.971.015-.243.029-.484.04-.72.027-.495.049-.977.068-1.448l.016-.41c.027-.739.047-1.444.06-2.114v-.036c.015-.75.022-1.452.022-2.106v-.04c0-.532-.004-1.03-.01-1.495-.032-2.266-1.734-4.155-3.982-4.445-.578-.075-1.15-.16-1.719-.248l-.378-.06c-.554-.089-1.104-.183-1.649-.285l-.243-.047c-.495-.095-.985-.194-1.472-.298l-.314-.067c-.531-.115-1.057-.237-1.577-.364l-.327-.08c-.481-.12-.959-.244-1.431-.372l-.185-.049c-.513-.14-1.02-.287-1.523-.437l-.341-.104c-.504-.153-1.004-.309-1.496-.47l-.08-.028c-.475-.156-.943-.317-1.407-.481l-.316-.112c-.473-.17-.941-.342-1.404-.519l-.234-.09c-.419-.162-.833-.326-1.242-.493l-.243-.098c-.45-.185-.893-.373-1.33-.563l-.286-.125c-.413-.182-.823-.365-1.227-.551l-.11-.05c-.43-.2-.853-.402-1.271-.605l-.284-.138c-.414-.203-.823-.408-1.226-.614l-.118-.062c-.376-.194-.746-.39-1.111-.585l-.247-.133c-.385-.208-.764-.417-1.137-.627l-.21-.12c-.337-.19-.669-.382-.996-.574l-.176-.103c-.36-.212-.712-.424-1.06-.637l-.232-.143c-.341-.21-.678-.42-1.007-.63l-.034-.022c-.34-.217-.67-.433-.997-.648l-.22-.145c-.317-.211-.63-.422-.935-.631l-.122-.084c-.279-.193-.552-.384-.821-.574l-.179-.126c-.288-.205-.57-.409-.847-.611l-.169-.124c-.25-.185-.497-.368-.737-.55l-.109-.081c-.263-.2-.518-.395-.767-.59l-.17-.132c-.25-.195-.494-.388-.73-.577l-.014-.012c-.234-.187-.46-.371-.68-.552l-.148-.122c-.216-.179-.426-.354-.629-.526l-.095-.08-.532-.457-.107-.093c-.186-.162-.365-.32-.538-.473l-.109-.098c-.158-.141-.311-.279-.457-.412l-.054-.048c-.158-.145-.307-.282-.45-.416l-.047-.043C48.009.276 47.255 0 46.5 0v101.31c.977-.244 1.932-.508 2.868-.791 1.164-.351 2.296-.733 3.4-1.14z" transform="translate(-1200 -2595) translate(0 2526) translate(388 65) translate(812 4)"/>
                            <path fill="url(#1r6o721w4c)" d="M87.388 27.568c-.028-1.997-1.528-3.661-3.509-3.917C65.594 21.287 52.9 10.984 48.352 6.737c-1.042-.973-2.661-.973-3.703 0-4.547 4.247-17.242 14.55-35.527 16.914-1.981.256-3.481 1.92-3.509 3.917-.181 13.08 2.076 58.033 40.887 67.736C85.312 85.6 87.569 40.649 87.388 27.568z" transform="translate(-1200 -2595) translate(0 2526) translate(388 65) translate(812 4)"/>
                            <path fill="#FFF" fill-rule="nonzero" d="M46.5 91.864l-.458-.115c-8.232-2.058-15.274-6.028-20.929-11.799-4.694-4.79-8.466-10.855-11.212-18.025-4.77-12.46-5.333-25.146-5.244-31.598.037-2.672 2.07-4.946 4.73-5.29C28.89 23.033 39.67 14.312 43.584 10.655c1.635-1.527 4.197-1.527 5.832 0 3.915 3.657 14.694 12.378 30.197 14.382 2.66.344 4.693 2.618 4.73 5.29.168 12.174-2.03 52.583-37.386 61.423l-.457.114zm0-78.586c-.122 0-.245.045-.34.134-4.182 3.906-15.7 13.222-32.29 15.366-.81.105-1.429.793-1.44 1.6-.158 11.42 1.844 49.187 34.07 57.594 32.226-8.407 34.228-46.174 34.07-57.593-.011-.808-.63-1.496-1.44-1.6-16.59-2.145-28.108-11.461-32.29-15.367-.095-.09-.217-.134-.34-.134z" transform="translate(-1200 -2595) translate(0 2526) translate(388 65) translate(812 4)"/>
                            <path fill="url(#vi5pit6pbd)" d="M87.388 27.568c-.028-1.997-1.528-3.661-3.509-3.917C65.594 21.287 52.9 10.984 48.352 6.737c-.521-.487-1.186-.73-1.852-.73v89.297C85.312 85.6 87.57 40.649 87.388 27.568z" transform="translate(-1200 -2595) translate(0 2526) translate(388 65) translate(812 4)"/>
                            <path fill="url(#ebvbywvyxe)" d="M89.609 53.647c-3.264 13.194-9.662 27.549-22.056 37.433L29.15 52.678c-1.404-1.405-1.404-3.683 0-5.09 1.405-1.406 3.685-1.406 5.09 0l7.725 7.726c.952.95 2.5.95 3.448 0l20.388-20.386c1.406-1.406 3.685-1.406 5.09 0h.001L89.61 53.647z" transform="translate(-1200 -2595) translate(0 2526) translate(388 65) translate(812 4)"/>
                            <path fill="url(#tg3y23n8if)" d="M70.892 34.929c1.406 1.406 1.405 3.684 0 5.09L50.505 60.404c-3.758 3.758-9.873 3.758-13.629 0l-7.725-7.726c-1.406-1.406-1.406-3.684-.001-5.09 1.405-1.405 3.685-1.406 5.09 0l7.725 7.725c.95.95 2.5.95 3.448 0l20.388-20.386c1.405-1.405 3.684-1.405 5.09 0v.002z" transform="translate(-1200 -2595) translate(0 2526) translate(388 65) translate(812 4)"/>
                        </g>
                    </g>
                </g>
            </g>
        </g>
    </g>
</svg>
