<svg xmlns="http://www.w3.org/2000/svg" viewBox="0 0 32 32"><g fill="none" fill-rule="evenodd"><rect width="30" height="30" x="1" y="1" fill="#EF4141" stroke="#FFF" stroke-opacity=".3" stroke-width="2" rx="15"/><path fill="#FFF" fill-rule="nonzero" d="M22.364 17.192c-.196-2.545-1.381-4.14-2.427-5.548-.968-1.303-1.804-2.428-1.804-4.088a.355.355 0 00-.563-.289c-1.57 1.123-2.88 3.017-3.337 4.824-.318 1.258-.36 2.672-.366 3.606-1.45-.31-1.778-2.479-1.782-2.502a.357.357 0 00-.507-.27c-.076.037-1.866.946-1.97 4.578-.008.121-.008.242-.008.364 0 3.528 2.871 6.4 6.4 6.4h.019a6.408 6.408 0 006.381-6.4c0-.178-.036-.675-.036-.675zM16 23.555c-1.176 0-2.133-1.02-2.133-2.272 0-.043 0-.086.002-.139.015-.528.115-.889.225-1.129.206.443.575.85 1.174.85a.355.355 0 00.356-.355c0-.506.01-1.09.136-1.617.112-.468.38-.965.72-1.364.15.518.445.936.733 1.345.411.585.837 1.19.911 2.22.005.061.01.123.01.189 0 1.253-.958 2.272-2.134 2.272z"/></g></svg>
