<svg xmlns="http://www.w3.org/2000/svg" width="110" height="109" viewBox="0 0 110 109">
    <defs>
        <linearGradient id="i0rw2l4uha" x1="64.72%" x2="141.246%" y1="59.017%" y2="105.797%">
            <stop offset="0%" stop-color="#C3C3C3"/>
            <stop offset="100%" stop-color="#777"/>
        </linearGradient>
        <linearGradient id="ih1hh0laob" x1="1.672%" x2="101.67%" y1="49.49%" y2="52.484%">
            <stop offset="0%" stop-color="#C3C3C3"/>
            <stop offset="100%" stop-color="#777"/>
        </linearGradient>
        <linearGradient id="l6csh1om1c" x1="68.884%" x2="21.796%" y1="72.399%" y2="18.764%">
            <stop offset="0%" stop-color="#C3C3C3" stop-opacity="0"/>
            <stop offset="26.7%" stop-color="#A4A4A4" stop-opacity=".267"/>
            <stop offset="54.2%" stop-color="#8B8B8B" stop-opacity=".542"/>
            <stop offset="79.4%" stop-color="#7C7C7C" stop-opacity=".794"/>
            <stop offset="100%" stop-color="#777"/>
        </linearGradient>
        <linearGradient id="40fex6yk8d" x1="75.241%" x2="24.868%" y1="24.743%" y2="75.17%">
            <stop offset="0%" stop-color="#62E1FB"/>
            <stop offset="100%" stop-color="#00A2F3"/>
        </linearGradient>
        <linearGradient id="osqz7angre" x1="18.575%" x2="80.154%" y1="25.554%" y2="73.465%">
            <stop offset="0%" stop-color="#777"/>
            <stop offset="100%" stop-color="#3B4041"/>
        </linearGradient>
        <linearGradient id="dyatzmykvf" x1="54.941%" x2="45.277%" y1="89.615%" y2="12.204%">
            <stop offset="0%" stop-color="#777"/>
            <stop offset="100%" stop-color="#3B4041"/>
        </linearGradient>
        <linearGradient id="mj50yewglg" x1="18.619%" x2="80.179%" y1="25.592%" y2="73.496%">
            <stop offset="0%" stop-color="#C3C3C3"/>
            <stop offset="100%" stop-color="#777"/>
        </linearGradient>
        <linearGradient id="41a8xw6sah" x1="18.575%" x2="80.146%" y1="25.558%" y2="73.461%">
            <stop offset="0%" stop-color="#777"/>
            <stop offset="100%" stop-color="#3B4041"/>
        </linearGradient>
        <linearGradient id="e31vqpkggi" x1="54.935%" x2="45.271%" y1="89.618%" y2="12.206%">
            <stop offset="0%" stop-color="#777"/>
            <stop offset="100%" stop-color="#3B4041"/>
        </linearGradient>
        <linearGradient id="wp1a0odc3j" x1="18.609%" x2="80.17%" y1="25.594%" y2="73.498%">
            <stop offset="0%" stop-color="#C3C3C3"/>
            <stop offset="100%" stop-color="#777"/>
        </linearGradient>
        <linearGradient id="jvc6tykp3k" x1="43.716%" x2="37.43%" y1="51.322%" y2="71.43%">
            <stop offset="0%" stop-color="#7A94FF"/>
            <stop offset="100%" stop-color="#496CFF"/>
        </linearGradient>
        <linearGradient id="bma4uuxq2l" x1="40.329%" x2="54.973%" y1="62.155%" y2="15.316%">
            <stop offset="0%" stop-color="#496CFF" stop-opacity="0"/>
            <stop offset="100%" stop-color="#496CFF"/>
        </linearGradient>
        <linearGradient id="dgbg1hyuvm" x1="49.998%" x2="49.998%" y1="32.075%" y2="127.153%">
            <stop offset="0%" stop-color="#51D6FA"/>
            <stop offset="100%" stop-color="#0EABF4"/>
        </linearGradient>
    </defs>
    <g fill="none" fill-rule="evenodd">
        <g>
            <g>
                <g>
                    <g>
                        <g transform="translate(-388 -2591) translate(0 2526) translate(388 65)">
                            <circle cx="5.079" cy="49.48" r="3.861" fill="url(#i0rw2l4uha)"/>
                            <path fill="url(#ih1hh0laob)" d="M106.163 81.13l-74.63.06c-2.966.002-5.38-2.409-5.383-5.374l-.05-42.191c-.006-8.182-3.199-15.871-8.989-21.652l-1.838-1.835c-1.38-1.377-3.624-1.502-5.065-.19-1.538 1.403-1.578 3.788-.123 5.241l1.911 1.908c4.178 4.171 6.584 9.644 6.84 15.506H5.743c-2.188 0-4.045 1.79-4.005 3.977.04 2.12 1.772 3.828 3.902 3.828h10.647c1.426 0 2.583 1.155 2.585 2.581.001 1.428-1.156 2.587-2.585 2.587H14.3c-2.155 0-3.903 1.748-3.903 3.903 0 2.155 1.748 3.902 3.903 3.902h2.192c1.322 0 2.394 1.07 2.396 2.393.001 1.324-1.072 2.398-2.396 2.398h-2.193c-2.155 0-3.902 1.747-3.902 3.902 0 2.155 1.747 3.902 3.902 3.902h4.6l.012 9.846c.005 6.958 5.67 12.613 12.628 12.608l74.63-.06c2-.001 3.62-1.623 3.618-3.623-.002-2-1.624-3.618-3.623-3.617z"/>
                            <path fill="url(#l6csh1om1c)" d="M17.112 11.973L15.2 10.066c-1.415-1.413-3.707-1.411-5.12.004-1.412 1.414-1.41 3.707.005 5.119l1.91 1.908c2.035 2.03 3.648 4.371 4.798 6.914l5.381-5.39c-1.359-2.406-3.054-4.642-5.063-6.648z"/>
                            <path fill="url(#40fex6yk8d)" d="M1.675 1.748c2.235-2.24 5.862-2.242 8.1-.007l4.614 4.606c2.238 2.235 2.241 5.862.006 8.1-2.235 2.24-5.862 2.243-8.101.007L1.681 9.85C-.558 7.613-.56 3.986 1.675 1.748z"/>
                            <circle cx="40.203" cy="94.565" r="13.868" fill="url(#osqz7angre)"/>
                            <circle cx="40.203" cy="94.565" r="9.545" fill="url(#dyatzmykvf)"/>
                            <circle cx="40.203" cy="94.565" r="4.595" fill="url(#mj50yewglg)"/>
                            <circle cx="87.587" cy="94.565" r="13.868" fill="url(#41a8xw6sah)"/>
                            <circle cx="87.587" cy="94.565" r="9.545" fill="url(#e31vqpkggi)"/>
                            <circle cx="87.587" cy="94.565" r="4.595" fill="url(#wp1a0odc3j)"/>
                            <path fill="url(#jvc6tykp3k)" d="M83.875 79.23H34.59c-2.113 0-3.647-1.5-3.665-3.585l-.367-42.36h74.952l-16.597 42.36c-.816 2.086-2.924 3.585-5.038 3.585z"/>
                            <path fill="#4D68D8" d="M78.78 74.375c-.137 0-.274-.01-.41-.032-1.476-.23-2.25-1.656-1.73-3.186l8.845-25.961c.522-1.53 2.142-2.585 3.618-2.355 1.477.23 2.251 1.656 1.73 3.186l-8.845 25.961c-.473 1.39-1.852 2.387-3.207 2.387zM41.545 74.375c-1.355 0-2.352-.997-2.293-2.387l1.101-25.96c.065-1.53 1.386-2.957 2.951-3.187 1.564-.23 2.78.825 2.715 2.355l-1.101 25.96c-.065 1.531-1.386 2.958-2.95 3.187-.144.021-.286.032-.423.032zM66.515 74.374c-.048 0-.096 0-.144-.003-1.52-.08-2.45-1.396-2.075-2.941l6.293-25.961c.375-1.546 1.913-2.731 3.43-2.655 1.521.079 2.45 1.395 2.076 2.94l-6.293 25.962c-.362 1.496-1.815 2.658-3.287 2.658zM53.811 74.374c-1.472 0-2.48-1.162-2.269-2.658l3.654-25.961c.217-1.545 1.65-2.862 3.201-2.941 1.55-.078 2.632 1.11 2.415 2.655l-3.654 25.96c-.217 1.546-1.65 2.863-3.202 2.942-.048.002-.097.003-.145.003z"/>
                            <path fill="url(#bma4uuxq2l)" d="M30.615 39.855L62.202 79.23h21.673c2.114 0 4.221-1.5 5.038-3.585l16.597-42.36H30.558l.057 6.57z"/>
                            <path fill="url(#dgbg1hyuvm)" d="M105.18 40.142H30.888c-2.173 0-3.935-1.762-3.935-3.935s1.762-3.935 3.935-3.935h74.292c2.174 0 3.935 1.762 3.935 3.935s-1.762 3.935-3.935 3.935z"/>
                        </g>
                    </g>
                </g>
            </g>
        </g>
    </g>
</svg>
