<svg xmlns="http://www.w3.org/2000/svg" xmlns:xlink="http://www.w3.org/1999/xlink" width="70" height="70"><defs><filter id="a" width="172%" height="172%" x="-36%" y="-24%" filterUnits="objectBoundingBox"><feOffset dy="6" in="SourceAlpha" result="shadowOffsetOuter1"/><feGaussianBlur in="shadowOffsetOuter1" result="shadowBlurOuter1" stdDeviation="5"/><feComposite in="shadowBlurOuter1" in2="SourceAlpha" operator="out" result="shadowBlurOuter1"/><feColorMatrix in="shadowBlurOuter1" values="0 0 0 0 0.623937075 0 0 0 0 0.0417041274 0 0 0 0 0.0417041274 0 0 0 0.217985734 0"/></filter><circle id="b" cx="25" cy="25" r="25"/></defs><g fill="none" fill-rule="evenodd"><g transform="translate(10 4)"><use fill="#000" filter="url(#a)" xlink:href="#b"/><circle cx="25" cy="25" r="24" fill="#496CFF" stroke="#FFF" stroke-linejoin="square" stroke-opacity=".41" stroke-width="2"/></g><path fill="#FFFEFF" fill-rule="nonzero" d="M45.16 20H25.84a.82.82 0 00-.82.819c0 2.28.978 4.456 2.682 5.971l3.585 3.187c.622.553.979 1.347.979 2.179v7.983a.818.818 0 001.272.681l4.83-3.22a.816.816 0 00.365-.68v-4.764c0-.832.357-1.626.979-2.179l3.585-3.187a7.996 7.996 0 002.681-5.971.819.819 0 00-.818-.819zm-2.95 5.566l-3.586 3.187a4.555 4.555 0 00-1.528 3.402v4.326l-3.193 2.129v-6.454c0-1.3-.557-2.54-1.528-3.403l-3.585-3.187a6.357 6.357 0 01-2.08-3.929h17.578a6.36 6.36 0 01-2.079 3.93z"/></g></svg>