<svg xmlns="http://www.w3.org/2000/svg" width="9" height="12"><g fill="#7B8197" fill-rule="evenodd"><path d="M4.5 5.748c1.307 0 2.366-1.286 2.366-2.874C6.866 1.287 6.518 0 4.5 0 2.482 0 2.134 1.287 2.134 2.874c0 1.588 1.06 2.874 2.366 2.874zM.064 10.187c-.001-.194-.002-.055 0 0zm8.938.038c.004-.03.001-.21 0 0z"/><path d="M8.964 10.02C8.92 7.257 8.56 6.469 5.796 5.97c0 0-.39.496-1.296.496-.907 0-1.296-.496-1.296-.496C.471 6.462.088 7.239.037 9.93c-.004.22-.006.231-.007.206v.29s.659 1.327 4.47 1.327 4.47-1.327 4.47-1.327v-.215c-.002.016-.003-.014-.006-.191z"/></g></svg>