<svg xmlns="http://www.w3.org/2000/svg" width="12" height="16"><path d="M11.966 9.221c-.183-2.349-1.294-3.82-2.275-5.12C8.784 2.9 8 1.862 8 .33a.328.328 0 00-.181-.292.332.332 0 00-.346.025c-1.472 1.037-2.7 2.784-3.13 4.452-.297 1.16-.337 2.465-.342 3.327-1.36-.285-1.668-2.287-1.67-2.309a.334.334 0 00-.477-.249c-.07.034-1.75.874-1.847 4.225C0 9.621 0 9.733 0 9.845c0 3.256 2.692 5.905 6 5.905h.018C9.318 15.741 12 13.095 12 9.845c0-.164-.034-.623-.034-.623zM6 15.093c-1.103 0-2-.94-2-2.097 0-.04 0-.079.003-.128.013-.487.107-.82.21-1.042.194.41.54.785 1.1.785a.33.33 0 00.334-.328c0-.467.01-1.006.128-1.493.105-.43.357-.89.675-1.257.142.477.418.863.687 1.24.386.54.785 1.098.855 2.05.004.056.008.112.008.173 0 1.157-.897 2.097-2 2.097z" fill="#FFF" fill-rule="nonzero"/></svg>