<svg xmlns="http://www.w3.org/2000/svg" viewBox="0 0 135 43"><g fill="none" fill-rule="evenodd"><path fill="currentColor" fill-rule="nonzero" d="M102.996 31c2.002 0 3.548-.444 4.638-1.33 1.09-.888 1.636-2.153 1.636-3.797 0-1.229-.336-2.187-1.007-2.875-.671-.687-1.72-1.137-3.143-1.349v-.073c1.212-.195 2.134-.637 2.765-1.324.63-.688.946-1.549.946-2.582 0-1.514-.517-2.645-1.55-3.394-1.034-.748-2.654-1.123-4.86-1.123h-4.894V31h5.469zm-.293-9.9h-3.931v-6.848h3.601c1.7 0 2.98.269 3.84.806.858.537 1.287 1.4 1.287 2.588 0 1.188-.38 2.06-1.141 2.618-.761.557-1.98.836-3.656.836zm.268 8.801h-4.199V22.2h3.93c3.484 0 5.225 1.225 5.225 3.674 0 2.686-1.652 4.028-4.956 4.028zM110.124 31l2.49-6.299h7.251L122.343 31h1.404l-7.031-17.92h-.793L108.745 31h1.38zm9.326-7.422h-6.384l2.502-6.409c.26-.634.501-1.342.72-2.124.286.896.53 1.595.733 2.1l2.43 6.433zM128.068 31v-6.897l5.945-10.95h-1.343l-5.224 9.766-5.2-9.766h-1.429l5.97 11.048V31h1.281zm-77.145 0c2.019 0 3.616-.456 4.792-1.367 1.176-.912 1.764-2.181 1.764-3.809 0-1.147-.25-2.067-.751-2.759-.5-.691-1.317-1.163-2.448-1.416v-.122a2.996 2.996 0 001.996-1.233c.5-.683.75-1.558.75-2.624 0-1.57-.57-2.716-1.714-3.436-1.144-.72-2.98-1.08-5.512-1.08h-5.554V31h6.677zm-.695-10.779H48.03v-3.967h1.99c1.082 0 1.874.148 2.374.445.5.298.751.788.751 1.471 0 .733-.23 1.258-.69 1.575-.46.317-1.202.476-2.227.476zm.268 7.654H48.03v-4.65h2.344c2.116 0 3.174.74 3.174 2.22 0 .823-.248 1.433-.745 1.832-.496.399-1.265.598-2.307.598zm16.25 3.37c1.523 0 2.841-.265 3.956-.794 1.115-.53 1.967-1.29 2.557-2.283.59-.993.885-2.148.885-3.467V13.153h-3.772v10.901c0 1.384-.278 2.399-.836 3.046-.557.647-1.454.97-2.691.97-1.278 0-2.194-.321-2.747-.964-.553-.643-.83-1.652-.83-3.027V13.153h-3.772v11.5c0 2.042.635 3.651 1.904 4.827 1.27 1.176 3.052 1.764 5.347 1.764zM84.525 31v-6.946l5.92-10.9h-4.077l-3.723 7.348-3.7-7.349h-4.1l5.92 11.023V31h3.76z"/><path fill="#496CFF" d="M21.268 3.077L1.698 22.744a.999.999 0 00.708 1.706H6.14a2 2 0 011.874 2.7l-4.35 11.63a.999.999 0 001.637 1.065l19.952-19.583a1 1 0 00-.7-1.714h-3.78a2 2 0 01-1.892-2.648l4.041-11.793a1 1 0 00-1.655-1.03z"/></g></svg>
