<svg xmlns="http://www.w3.org/2000/svg" width="22" height="22"><path d="M14.132 11.008a3.131 3.131 0 01-3.129 3.133 3.132 3.132 0 01.001-6.265 3.135 3.135 0 013.128 3.132M11.003.6C5.267.6.6 5.272.6 11.015c0 5.743 4.667 10.408 10.403 10.408 2.1 0 4.126-.626 5.86-1.814l.033-.02-1.402-1.63-.026.012a8.259 8.259 0 01-4.465 1.312c-4.556 0-8.265-3.713-8.265-8.275 0-4.561 3.709-8.274 8.265-8.274 4.557 0 8.265 3.713 8.265 8.274 0 .594-.065 1.188-.195 1.782-.26 1.077-1.01 1.403-1.577 1.357-.568-.045-1.232-.45-1.239-1.442v-1.697c0-2.904-2.36-5.266-5.26-5.266s-5.26 2.362-5.26 5.266 2.36 5.267 5.26 5.267c1.408 0 2.73-.555 3.728-1.553.58.9 1.526 1.468 2.601 1.553.091.006.19.013.28.013.756 0 1.506-.255 2.112-.712.626-.476 1.089-1.161 1.343-1.983.04-.13.117-.438.117-.438v-.013c.15-.659.222-1.318.222-2.134C21.407 5.272 16.74.6 11.003.6" fill="currentColor" fill-rule="evenodd"/></svg>
