<svg xmlns="http://www.w3.org/2000/svg" width="19" height="19"><path d="M12.554 9.53a2.734 2.734 0 11-5.467-.001 2.734 2.734 0 015.467.001M9.821.448C4.811.448.733 4.525.733 9.536c0 5.01 4.077 9.081 9.088 9.081a9.033 9.033 0 005.119-1.582l.028-.018-1.224-1.423-.023.011a7.219 7.219 0 01-3.9 1.145c-3.98 0-7.22-3.24-7.22-7.22 0-3.98 3.24-7.22 7.22-7.22 3.98 0 7.22 3.24 7.22 7.22 0 .518-.057 1.036-.17 1.554-.229.94-.884 1.225-1.379 1.185-.495-.04-1.076-.393-1.082-1.259V9.53a4.6 4.6 0 00-4.595-4.595c-2.534 0-4.595 2.061-4.595 4.595s2.061 4.595 4.595 4.595a4.58 4.58 0 003.257-1.355 2.96 2.96 0 002.272 1.355 3.095 3.095 0 002.09-.609c.546-.416.95-1.014 1.173-1.731.034-.114.102-.382.102-.382v-.011c.131-.575.194-1.15.194-1.862.005-5.005-4.071-9.082-9.082-9.082" fill="#C9C9D4" fill-rule="evenodd"/></svg>