<svg xmlns="http://www.w3.org/2000/svg" width="40" height="40"><g fill="none" fill-rule="evenodd"><circle cx="20" cy="20" r="20" fill="#FF9800"/><g fill="#FFF"><path fill-rule="nonzero" d="M19.987 20.223a6.912 6.912 0 10-6.912-6.911 6.92 6.92 0 006.912 6.911zm0-10.633a3.722 3.722 0 110 7.444 3.722 3.722 0 010-7.444z"/><path d="M26.757 23.499a2.679 2.679 0 001.205-2.233 1.928 1.928 0 00-1.081-1.76 2.02 2.02 0 00-2.127.2 8.093 8.093 0 01-9.533 0 2.029 2.029 0 00-2.127-.2 1.93 1.93 0 00-1.082 1.758 2.68 2.68 0 001.205 2.233 12.3 12.3 0 003.115 1.49c.188.057.38.111.58.16l-3.214 3.143a2.127 2.127 0 002.962 3.053l.052-.052 3.275-3.39 3.282 3.396a2.126 2.126 0 103.055-2.959l-.052-.052-3.209-3.14c.2-.05.393-.105.582-.162a12.266 12.266 0 003.112-1.485z"/></g></g></svg>