<svg xmlns="http://www.w3.org/2000/svg" width="13" height="19"><g fill="#C9C9D4" fill-rule="evenodd"><path fill-rule="nonzero" d="M6.752 10.068a4.81 4.81 0 10-4.808-4.81 4.818 4.818 0 004.81 4.81zm0-7.4a2.59 2.59 0 11-.002 5.18 2.59 2.59 0 01.003-5.18z"/><path d="M11.38 12.198c.513-.327.823-.88.824-1.472a1.267 1.267 0 00-.74-1.16 1.421 1.421 0 00-1.453.132 5.7 5.7 0 01-6.516 0 1.43 1.43 0 00-1.453-.132 1.27 1.27 0 00-.74 1.16c.001.592.31 1.144.824 1.47a8.47 8.47 0 002.525 1.088l-2.196 2.07a1.367 1.367 0 00-.031 1.982 1.491 1.491 0 002.055.03l.035-.034 2.239-2.234 2.243 2.238c.558.556 1.478.57 2.055.032a1.367 1.367 0 00.033-1.982l-.036-.034-2.193-2.069a8.487 8.487 0 002.525-1.086z"/></g></svg>