<svg xmlns="http://www.w3.org/2000/svg" width="15" height="23"><g fill="currentColor" fill-rule="evenodd"><path fill-rule="nonzero" d="M7.24 12.33a5.861 5.861 0 005.859-5.865A5.862 5.862 0 007.24.6a5.862 5.862 0 00-5.859 5.865 5.87 5.87 0 005.859 5.866zm0-9.023a3.157 3.157 0 013.155 3.158A3.157 3.157 0 017.24 9.624a3.157 3.157 0 01-3.155-3.159A3.157 3.157 0 017.24 3.307z"/><path d="M12.877 14.929a2.136 2.136 0 001.003-1.795c.009-.6-.342-1.15-.9-1.414a1.734 1.734 0 00-1.771.16 6.93 6.93 0 01-7.937 0 1.742 1.742 0 00-1.77-.16c-.559.263-.91.814-.902 1.413a2.136 2.136 0 001.003 1.795c.802.514 1.675.917 2.594 1.196.156.047.317.09.483.13l-2.676 2.525a1.668 1.668 0 00-.038 2.417 1.817 1.817 0 002.504.036c.015-.014.03-.027.043-.042l2.727-2.724 2.732 2.73c.68.677 1.802.695 2.504.038.702-.657.72-1.739.04-2.417l-.044-.041-2.67-2.523c.165-.041.327-.085.484-.13.917-.278 1.79-.68 2.59-1.194z"/></g></svg>
