<svg xmlns="http://www.w3.org/2000/svg" width="15" height="17"><path d="M11.07 1a.84.84 0 01.727.42h0l2.076 3.588c.02.03.037.06.053.091h0l.01.02a.429.429 0 01.058.249l.002.038v9.488a1.03 1.03 0 01-1.029 1.029h0H2.028A1.03 1.03 0 011 14.894h0V5.44c0-.09.016-.177.046-.257a.43.43 0 01.042-.102h0l2.11-3.66A.842.842 0 013.926 1h0zm2.05 4.573H1.876v9.321c0 .085.069.154.153.154h10.94a.154.154 0 00.153-.154h0V5.573zM8.866 8.87a.438.438 0 01.618.619h0L7.221 11.75a.437.437 0 01-.619 0h0l-1.06-1.06a.44.44 0 010-.619.44.44 0 01.619 0h0l.75.751zm2.185-6.995h-3.1v2.823h4.733L11.05 1.875zm-3.975 0h-3.13L2.319 4.698h4.757V1.875z" fill="#7B8197" fill-rule="nonzero" stroke="#7B8197" stroke-width=".3"/></svg>