<svg xmlns="http://www.w3.org/2000/svg" viewBox="0 0 80 80">
    <g fill="#496CFF" fill-rule="nonzero">
        <path d="M22.128 17.87a2.978 2.978 0 00-4.207 0c-4.313 4.305-6.432 10.302-5.816 16.455a2.973 2.973 0 003.256 2.66 2.972 2.972 0 002.665-3.251c-.438-4.373 1.057-8.624 4.102-11.664a2.964 2.964 0 000-4.2z"/>
        <path d="M34 0C15.252 0 0 15.252 0 34c0 18.748 15.252 34 34 34 18.748 0 34-15.252 34-34C68 15.252 52.748 0 34 0zm0 62.052C18.532 62.052 5.948 49.468 5.948 34S18.532 5.948 34 5.948 62.052 18.532 62.052 34 49.468 62.052 34 62.052z"/>
        <path d="M79.146 75.026L57.974 53.854a2.91 2.91 0 00-4.12 0 2.91 2.91 0 000 4.12l21.172 21.172c.57.57 1.314.854 2.06.854s1.491-.284 2.06-.854a2.91 2.91 0 000-4.12z"/>
    </g>
</svg>
