<svg xmlns="http://www.w3.org/2000/svg" viewBox="0 0 18 18"><g fill="currentColor" stroke="currentColor" stroke-width=".4"><path d="M16.4 7.167h-1.543a.577.577 0 01-.548-.366.577.577 0 01.129-.646l1.091-1.091a.845.845 0 00.249-.6.844.844 0 00-.249-.602l-1.391-1.391a.87.87 0 00-1.202 0l-1.091 1.091a.577.577 0 01-.646.129.576.576 0 01-.366-.548V1.6a.85.85 0 00-.85-.849H8.017a.851.851 0 00-.85.85v1.543a.576.576 0 01-.365.548.577.577 0 01-.646-.129L5.064 2.471a.87.87 0 00-1.202 0L2.471 3.862a.846.846 0 000 1.201l1.091 1.092a.579.579 0 01.129.646.576.576 0 01-.548.366H1.6a.85.85 0 00-.849.85v1.967c0 .468.381.85.85.85h1.543c.248 0 .453.136.548.365.095.23.046.47-.129.646l-1.091 1.091a.845.845 0 00-.249.6c0 .228.088.441.249.602l1.391 1.391a.87.87 0 001.202 0l1.091-1.091a.577.577 0 01.646-.129c.23.095.366.3.366.548v1.544c0 .468.38.849.85.849h1.967a.85.85 0 00.849-.85v-1.543c0-.248.137-.453.366-.548a.577.577 0 01.646.129l1.09 1.091a.872.872 0 001.203 0l1.39-1.391a.843.843 0 000-1.201l-1.09-1.092a.575.575 0 01-.129-.646c.095-.23.3-.366.548-.366h1.544a.85.85 0 00.849-.85V8.017a.851.851 0 00-.85-.85zm.239 2.817a.239.239 0 01-.238.238h-1.544c-.496 0-.923.285-1.112.743-.19.459-.09.962.26 1.312l1.092 1.092a.238.238 0 010 .337l-1.391 1.391a.238.238 0 01-.337 0l-1.092-1.091a1.186 1.186 0 00-1.312-.261c-.458.19-.743.616-.743 1.112v1.544a.24.24 0 01-.238.238H8.016a.239.239 0 01-.238-.238v-1.544c0-.496-.285-.923-.743-1.112a1.186 1.186 0 00-1.312.26L4.63 15.097a.238.238 0 01-.337 0l-1.391-1.391a.24.24 0 010-.338l1.091-1.09c.351-.352.451-.855.261-1.313a1.186 1.186 0 00-1.112-.743H1.6a.24.24 0 01-.238-.238V8.016c0-.131.107-.238.238-.238h1.544c.496 0 .923-.285 1.112-.743.19-.459.09-.962-.26-1.312L2.902 4.63a.238.238 0 010-.337l1.391-1.391a.238.238 0 01.337 0l1.092 1.091c.35.35.853.451 1.312.261.458-.19.743-.616.743-1.112V1.6a.24.24 0 01.238-.238h1.968c.131 0 .238.107.238.238v1.544c0 .496.285.923.743 1.112.46.19.962.09 1.312-.26l1.092-1.092a.238.238 0 01.337 0l1.391 1.391a.24.24 0 010 .338l-1.091 1.09a1.187 1.187 0 00-.261 1.313c.19.458.616.743 1.112.743H16.4a.24.24 0 01.238.238v1.968z"/><path d="M9 6.25C7.484 6.25 6.25 7.484 6.25 9S7.484 11.75 9 11.75s2.75-1.234 2.75-2.75S10.516 6.25 9 6.25zm0 4.889c-1.18 0-2.139-.96-2.139-2.139 0-1.18.96-2.139 2.139-2.139 1.18 0 2.139.96 2.139 2.139 0 1.18-.96 2.139-2.139 2.139z"/></g></svg>