<svg xmlns="http://www.w3.org/2000/svg" width="40" height="40"><g fill="none" fill-rule="evenodd"><circle cx="20" cy="20" r="20" fill="#7E45BA"/><g fill="#FFF"><path fill-rule="nonzero" d="M32.145 22.528c.78-6.637-.375-10.826-2.458-12.721v-.001c-3.361-3.237-14.719-3.716-18.743.144-1.808 1.889-2.445 4.66-2.515 8.09-.07 3.433-.152 9.862 5.778 11.606h.005l-.005 2.664s-.04 1.079.642 1.296c.78.255 1.133-.246 3.56-3.175 4.059.356 7.176-.459 7.53-.578.82-.277 5.457-.897 6.206-7.326zm-13.336 6.03s-2.569 3.236-3.368 4.076c-.261.274-.548.248-.543-.294 0-.355.02-4.422.02-4.422-5.028-1.455-4.732-6.93-4.677-9.794.054-2.865.573-5.211 2.103-6.791 3.53-3.344 13.488-2.597 16.026-.187 3.102 2.778 1.998 10.626 2.004 10.894-.637 5.366-4.395 5.707-5.086 5.94-.295.098-3.036.81-6.478.578z"/><path d="M20.23 11.962c-.42 0-.42.66 0 .666 3.256.025 5.937 2.317 5.966 6.523 0 .443.643.438.638-.006h-.002c-.034-4.531-2.962-7.158-6.602-7.183z"/><path d="M24.512 18.454c-.01.438.632.459.638.015.053-2.498-1.472-4.556-4.337-4.773-.42-.031-.463.635-.044.666 2.484.19 3.793 1.904 3.743 4.092zm-.686 2.841c-.539-.314-1.087-.118-1.314.19l-.474.62c-.24.316-.69.274-.69.274-3.286-.878-4.164-4.35-4.164-4.35s-.04-.47.26-.723l.593-.495c.297-.238.484-.81.182-1.373-.806-1.473-1.348-1.98-1.623-2.37-.29-.367-.726-.45-1.18-.201h-.01c-.942.557-1.974 1.6-1.644 2.673.563 1.132 1.599 4.74 4.899 7.467 1.55 1.289 4.005 2.61 5.047 2.915l.01.016c1.026.345 2.025-.738 2.558-1.72v-.007c.236-.474.158-.924-.188-1.218-.612-.603-1.537-1.27-2.262-1.698z"/><path d="M21.262 16.153c1.048.062 1.555.615 1.61 1.75.02.444.657.413.638-.03-.07-1.483-.835-2.309-2.213-2.386-.42-.025-.459.641-.035.666z"/></g></g></svg>