<svg width="62" height="20" xmlns="http://www.w3.org/2000/svg"><g fill="none" fill-rule="evenodd"><path d="M25.322.049l-3.109 19.348h4.97L30.29.049h-4.968zm14.99 7.881c-1.737-.858-2.801-1.436-2.801-2.313.021-.798.9-1.615 2.863-1.615 1.615-.04 2.801.339 3.702.716l.45.202.676-4.048c-.981-.38-2.538-.798-4.46-.798-4.908 0-8.363 2.552-8.385 6.201-.04 2.693 2.474 4.187 4.356 5.084 1.923.92 2.577 1.516 2.577 2.333-.021 1.254-1.555 1.833-2.985 1.833-1.982 0-3.047-.298-4.664-.997l-.654-.298-.695 4.207c1.167.518 3.314.975 5.543.999 5.215 0 8.609-2.513 8.651-6.403.017-2.133-1.309-3.767-4.174-5.103zM57.942.11h-3.844c-1.185 0-2.085.34-2.598 1.556l-7.382 17.732h5.215l1.437-3.84h5.835l.745 3.855h4.6L57.943.11zm-5.726 11.575c.1.01 2.002-6.267 2.002-6.267l1.514 6.267h-3.516zM18.06.049l-4.868 13.145-.53-2.592C11.76 7.61 8.937 4.36 5.788 2.746l4.458 16.631h5.258L23.32.051H18.06V.049z" fill="#2394BC" fill-rule="nonzero"/><path d="M11.023 2.544C10.643 1.07 9.433.074 7.79.053H.08L0 .41c6.015 1.483 11.064 6.045 12.702 10.338l-1.679-8.205z" fill="#EFC75E"/></g></svg>