<svg xmlns="http://www.w3.org/2000/svg" width="40" height="40"><g fill="none" fill-rule="evenodd"><circle cx="19.858" cy="19.858" r="19.858" fill="#4D76A1"/><path fill="#FFF" d="M19.108 28.567h1.558s.471-.052.711-.31c.222-.239.215-.685.215-.685s-.03-2.092.94-2.4c.956-.303 2.185 2.022 3.487 2.915.985.677 1.734.529 1.734.529l3.482-.049s1.821-.112.958-1.544c-.071-.118-.503-1.06-2.59-2.996-2.183-2.027-1.89-1.699.74-5.204 1.601-2.135 2.242-3.439 2.042-3.997-.191-.531-1.37-.391-1.37-.391l-3.92.024s-.29-.04-.506.09c-.21.126-.346.42-.346.42s-.62 1.653-1.448 3.058c-1.746 2.964-2.444 3.12-2.73 2.937-.663-.43-.498-1.724-.498-2.644 0-2.873.436-4.07-.848-4.38-.426-.104-.74-.172-1.83-.182-1.399-.015-2.583.004-3.253.332-.446.219-.79.705-.58.733.258.035.845.159 1.156.582.402.547.388 1.774.388 1.774s.23 3.382-.54 3.803c-.528.288-1.253-.3-2.809-2.99-.798-1.378-1.4-2.9-1.4-2.9s-.116-.285-.323-.437a1.62 1.62 0 00-.602-.244l-3.726.025s-.56.015-.765.259c-.182.216-.014.663-.014.663s2.917 6.824 6.22 10.263c3.028 3.153 6.467 2.946 6.467 2.946z"/></g></svg>