<svg xmlns="http://www.w3.org/2000/svg" width="23" height="13"><path d="M19.154 8.082c.708.692 1.454 1.342 2.089 2.104.28.338.546.687.749 1.08.287.558.027 1.172-.473 1.205l-3.107-.001c-.801.066-1.44-.257-1.978-.805-.43-.439-.829-.906-1.242-1.36a2.946 2.946 0 00-.56-.497c-.423-.275-.792-.191-1.034.252-.247.45-.303.949-.327 1.451-.033.732-.254.925-.99.958-1.57.075-3.06-.163-4.445-.956-1.22-.7-2.167-1.687-2.991-2.804C3.24 6.533 2.012 4.141.908 1.683.659 1.13.841.833 1.451.822A83.373 83.373 0 014.493.82c.412.006.685.243.844.633.548 1.35 1.22 2.634 2.061 3.824.225.317.453.634.779.857.36.247.635.165.804-.237a2.63 2.63 0 00.179-.802c.08-.939.09-1.876-.05-2.811-.086-.584-.415-.962-.997-1.073-.297-.056-.253-.166-.109-.336.25-.293.485-.475.953-.475h3.511c.553.11.676.358.751.915l.003 3.904c-.006.216.108.856.496.998.31.102.515-.147.701-.344.84-.893 1.44-1.949 1.977-3.042.238-.48.442-.98.64-1.478.147-.37.378-.553.794-.545l3.38.003c.1 0 .201.002.298.019.57.097.726.342.55.899-.277.873-.816 1.6-1.344 2.332-.563.78-1.166 1.535-1.725 2.32-.513.717-.472 1.079.165 1.701z" fill="currentColor" fill-rule="evenodd"/></svg>
