<svg xmlns="http://www.w3.org/2000/svg" width="40" height="40"><g fill-rule="nonzero" fill="none"><path fill="#59D952" d="M20 0C8.956 0 0 8.956 0 20s8.956 20 20 20 20-8.956 20-20S31.044 0 20 0z"/><path fill="#FFF" d="M20.424 7.703a11.892 11.892 0 018.467 3.51 11.891 11.891 0 013.503 8.465c-.003 6.497-5.21 11.801-11.667 11.963l-.303.004h-.005a11.97 11.97 0 01-5.72-1.457l-6.346 1.664 1.698-6.201a11.946 11.946 0 01-1.598-5.982c.003-6.598 5.373-11.966 11.97-11.966zm.004 2.021c-5.488 0-9.951 4.461-9.954 9.945 0 1.88.526 3.71 1.522 5.293l.236.377-1.005 3.67 3.765-.987.364.215a9.928 9.928 0 005.064 1.386h.004c5.483 0 9.946-4.461 9.949-9.946a9.89 9.89 0 00-2.911-7.036 9.886 9.886 0 00-7.034-2.917z"/><path fill="#FFF" d="M26.28 23.946c-.25.698-1.444 1.335-2.019 1.421-.515.077-1.167.11-1.884-.118a17.346 17.346 0 01-1.705-.63c-3-1.295-4.96-4.315-5.11-4.515-.149-.2-1.22-1.621-1.22-3.093 0-1.471.772-2.195 1.046-2.494.275-.3.599-.374.798-.374.2 0 .399.002.573.01.184.01.43-.07.673.513.25.6.847 2.07.922 2.22.075.15.125.325.025.524-.1.2-.431.63-.747 1.023-.133.164-.306.31-.132.61.175.3.775 1.279 1.664 2.072 1.143 1.018 2.106 1.334 2.406 1.484.298.15.473.124.647-.075.175-.2.748-.873.947-1.173.2-.3.4-.249.673-.15.275.1 1.745.824 2.044.973.3.15.498.225.573.35.075.125.075.723-.174 1.422z"/></g></svg>